<svg width="64" height="35" viewBox="0 0 64 35" fill="none" xmlns="http://www.w3.org/2000/svg">
<path fill-rule="evenodd" clip-rule="evenodd" d="M32 34.5209C45.1674 34.5209 56.5927 26.093 62.2811 21.0155C64.573 18.9697 64.573 15.5512 62.2811 13.5054C56.5927 8.42794 45.1674 0 32 0C18.8327 0 7.40738 8.42794 1.71893 13.5054C-0.57298 15.5512 -0.572977 18.9697 1.71894 21.0155C7.40738 26.093 18.8327 34.5209 32 34.5209ZM32 29.3026C38.6508 29.3026 44.0423 23.9112 44.0423 17.2604C44.0423 10.6097 38.6508 5.21825 32 5.21825C25.3493 5.21825 19.9579 10.6097 19.9579 17.2604C19.9579 23.9112 25.3493 29.3026 32 29.3026Z" fill="#E2D5D5"/>
</svg>
