<svg width="271" height="245" viewBox="0 0 271 200" fill="none" xmlns="http://www.w3.org/2000/svg">
<g clip-path="url(#clip0_3_7)">
<path d="M254.424 107.682C263.087 121.281 259.16 139.282 245.652 147.887C232.145 156.493 214.171 152.444 205.507 138.845C197.306 125.972 199.943 102.476 200.992 81.5534C201.078 79.8382 202.826 78.7077 204.425 79.3369C224.348 87.1892 246.212 94.7922 254.424 107.682Z" fill="black"/>
<path fill-rule="evenodd" clip-rule="evenodd" d="M143.19 135.947C177.894 113.839 193.855 72.4425 200.322 49.5094C202.927 40.2694 197.187 31.2595 187.712 29.7158C164.195 25.8848 119.931 22.8561 85.2278 44.9647C50.5241 67.0734 34.5628 108.469 28.0958 131.403C25.4902 140.643 31.2302 149.653 40.7056 151.196C64.2233 155.027 108.486 158.056 143.19 135.947ZM134.428 122.194C151.957 111.027 157.114 87.7651 145.947 70.2364C134.78 52.708 111.518 47.5508 93.9895 58.7178C76.461 69.8847 71.304 93.1468 82.4708 110.675C93.6379 128.204 116.9 133.361 134.428 122.194Z" fill="black"/>
</g>
<defs>
<clipPath id="clip0_3_7">
<rect width="209" height="173" fill="white" transform="translate(0.88916 98.6943) rotate(-32.5)"/>
</clipPath>
</defs>
</svg>
