<svg width="267" height="237" viewBox="0 0 267 237" fill="none" xmlns="http://www.w3.org/2000/svg">
<mask id="path-1-inside-1_810_5" fill="white">
<path d="M133.06 94.6645C129.946 94.6645 126.861 95.278 123.984 96.4699C121.106 97.6619 118.492 99.4089 116.289 101.611C114.087 103.814 112.34 106.428 111.148 109.306C109.956 112.184 109.342 115.268 109.342 118.382C109.342 121.497 109.956 124.581 111.148 127.459C112.34 130.337 114.087 132.951 116.289 135.154C118.492 137.356 121.106 139.103 123.984 140.295C126.861 141.487 129.946 142.1 133.06 142.1C136.175 142.1 139.259 141.487 142.137 140.295C145.014 139.103 147.629 137.356 149.831 135.154C152.034 132.951 153.781 130.337 154.973 127.459C156.165 124.581 156.778 121.497 156.778 118.382C156.778 115.268 156.165 112.184 154.973 109.306C153.781 106.428 152.034 103.814 149.831 101.611C147.629 99.4089 145.014 97.6619 142.137 96.4699C139.259 95.278 136.175 94.6645 133.06 94.6645ZM66.6189 165.563L61.3852 164.233C22.3763 154.375 0 137.643 0 118.338C0 99.0333 22.3763 82.301 61.3852 72.4434L66.6189 71.1239L68.0936 76.3133C72.0453 89.9266 77.0999 103.195 83.2071 115.987L84.327 118.349L83.2071 120.711C77.0897 133.499 72.0348 146.768 68.0936 160.385L66.6189 165.563ZM58.9568 84.563C29.3065 92.8904 11.1105 105.631 11.1105 118.338C11.1105 131.034 29.3065 143.775 58.9568 152.113C62.583 140.581 66.9612 129.298 72.0633 118.338C66.9553 107.381 62.577 96.0977 58.9568 84.563ZM199.502 165.563L198.027 160.363C194.079 146.75 189.021 133.485 182.903 120.7L181.783 118.338L182.903 115.976C189.018 103.187 194.077 89.9175 198.027 76.3022L199.502 71.1128L204.747 72.4323C243.744 82.2899 266.121 99.0222 266.121 118.338C266.121 137.654 243.744 154.375 204.747 164.233L199.502 165.563ZM194.057 118.338C199.38 129.859 203.782 141.18 207.164 152.113C236.825 143.775 255.01 131.034 255.01 118.338C255.01 105.631 236.814 92.9014 207.164 84.563C203.543 96.0974 199.164 107.38 194.057 118.338ZM58.8792 84.5076L57.4044 79.3293C46.4381 40.6753 49.7646 12.9765 66.5302 3.3075C82.9742 -6.18414 109.376 5.02619 137.041 33.4235L140.811 37.2933L137.041 41.1632C127.211 51.3823 118.229 62.385 110.185 74.0623L108.688 76.2024L106.082 76.4241C91.9326 77.5396 77.8967 79.8017 64.1129 83.188L58.8792 84.5076ZM79.9027 10.9917C76.931 10.9917 74.3031 11.6349 72.0854 12.91C61.0636 19.2636 59.112 41.3517 66.7076 71.1572C78.5237 68.5285 90.4987 66.6728 102.556 65.6019C109.513 55.7098 117.114 46.2865 125.31 37.3931C108.012 20.5499 91.6342 10.9917 79.9027 10.9917ZM186.229 236.773C186.218 236.773 186.218 236.773 186.229 236.773C170.428 236.773 150.136 224.875 129.08 203.253L125.31 199.383L129.08 195.513C138.907 185.291 147.885 174.284 155.925 162.603L157.421 160.463L160.016 160.241C174.173 159.132 188.217 156.873 202.008 153.488L207.241 152.169L208.727 157.358C219.671 195.99 216.356 223.7 199.59 233.358C195.518 235.66 190.907 236.839 186.229 236.773ZM140.811 199.283C158.109 216.126 174.486 225.685 186.218 225.685C189.179 225.685 191.829 225.041 194.035 223.766C205.057 217.413 207.02 195.314 199.413 165.508C187.594 168.14 175.615 169.996 163.553 171.063C156.605 180.962 149.007 190.39 140.811 199.283ZM207.241 84.5076L202.008 83.188C188.218 79.7919 174.174 77.5297 160.016 76.4241L157.421 76.2024L155.925 74.0623C147.89 62.3813 138.911 51.3782 129.08 41.1632L125.31 37.2933L129.08 33.4235C156.734 5.03728 183.124 -6.17305 199.59 3.3075C216.356 12.9765 219.683 40.6753 208.727 79.3182L207.241 84.5076ZM163.553 65.6019C176.216 66.7551 188.247 68.629 199.413 71.1572C207.02 41.3517 205.057 19.2636 194.035 12.91C183.08 6.57856 162.489 16.2809 140.811 37.3931C149.003 46.2869 156.6 55.7102 163.553 65.6019ZM79.9027 236.773C75.2212 236.841 70.6058 235.662 66.5302 233.358C49.7646 223.7 46.4381 196.001 57.4044 157.358L58.8681 152.169L64.1018 153.488C76.9089 156.715 91.0354 158.988 106.071 160.241L108.677 160.463L110.163 162.603C118.208 174.283 127.19 185.289 137.019 195.513L140.789 199.383L137.019 203.253C115.973 224.875 95.6815 236.773 79.9027 236.773ZM66.7076 165.508C59.101 195.314 61.0636 217.413 72.0854 223.766C83.0296 230.009 103.61 220.384 125.31 199.283C117.117 190.383 109.517 180.956 102.556 171.063C90.4981 169.997 78.5229 168.141 66.7076 165.508ZM133.06 172.472C123.935 172.472 114.554 172.072 105.162 171.296L102.556 171.074L101.059 168.934C95.747 161.301 90.7529 153.451 86.09 145.405C81.4409 137.352 77.1276 129.11 73.161 120.7L72.0633 118.338L73.161 115.976C77.127 107.566 81.4403 99.324 86.09 91.2715C90.6806 83.3322 95.7258 75.4151 101.059 67.742L102.556 65.6019L105.162 65.3801C123.731 63.8056 142.4 63.8056 160.97 65.3801L163.564 65.6019L165.05 67.742C175.686 83.0113 185.022 99.146 192.96 115.976L194.08 118.338L192.96 120.7C185.041 137.54 175.704 153.676 165.05 168.934L163.564 171.074L160.97 171.296C151.578 172.072 142.186 172.472 133.06 172.472ZM108.699 160.452C125.11 161.683 141.011 161.683 157.433 160.452C166.601 147.049 174.741 132.971 181.783 118.338C174.753 103.697 166.609 89.6175 157.421 76.2245C141.204 74.9937 124.917 74.9937 108.699 76.2245C99.5078 89.615 91.3633 103.695 84.3381 118.338C91.3876 132.969 99.5311 147.047 108.699 160.452Z"/>
</mask>
<path d="M133.06 94.6645C129.946 94.6645 126.861 95.278 123.984 96.4699C121.106 97.6619 118.492 99.4089 116.289 101.611C114.087 103.814 112.34 106.428 111.148 109.306C109.956 112.184 109.342 115.268 109.342 118.382C109.342 121.497 109.956 124.581 111.148 127.459C112.34 130.337 114.087 132.951 116.289 135.154C118.492 137.356 121.106 139.103 123.984 140.295C126.861 141.487 129.946 142.1 133.06 142.1C136.175 142.1 139.259 141.487 142.137 140.295C145.014 139.103 147.629 137.356 149.831 135.154C152.034 132.951 153.781 130.337 154.973 127.459C156.165 124.581 156.778 121.497 156.778 118.382C156.778 115.268 156.165 112.184 154.973 109.306C153.781 106.428 152.034 103.814 149.831 101.611C147.629 99.4089 145.014 97.6619 142.137 96.4699C139.259 95.278 136.175 94.6645 133.06 94.6645ZM66.6189 165.563L61.3852 164.233C22.3763 154.375 0 137.643 0 118.338C0 99.0333 22.3763 82.301 61.3852 72.4434L66.6189 71.1239L68.0936 76.3133C72.0453 89.9266 77.0999 103.195 83.2071 115.987L84.327 118.349L83.2071 120.711C77.0897 133.499 72.0348 146.768 68.0936 160.385L66.6189 165.563ZM58.9568 84.563C29.3065 92.8904 11.1105 105.631 11.1105 118.338C11.1105 131.034 29.3065 143.775 58.9568 152.113C62.583 140.581 66.9612 129.298 72.0633 118.338C66.9553 107.381 62.577 96.0977 58.9568 84.563ZM199.502 165.563L198.027 160.363C194.079 146.75 189.021 133.485 182.903 120.7L181.783 118.338L182.903 115.976C189.018 103.187 194.077 89.9175 198.027 76.3022L199.502 71.1128L204.747 72.4323C243.744 82.2899 266.121 99.0222 266.121 118.338C266.121 137.654 243.744 154.375 204.747 164.233L199.502 165.563ZM194.057 118.338C199.38 129.859 203.782 141.18 207.164 152.113C236.825 143.775 255.01 131.034 255.01 118.338C255.01 105.631 236.814 92.9014 207.164 84.563C203.543 96.0974 199.164 107.38 194.057 118.338ZM58.8792 84.5076L57.4044 79.3293C46.4381 40.6753 49.7646 12.9765 66.5302 3.3075C82.9742 -6.18414 109.376 5.02619 137.041 33.4235L140.811 37.2933L137.041 41.1632C127.211 51.3823 118.229 62.385 110.185 74.0623L108.688 76.2024L106.082 76.4241C91.9326 77.5396 77.8967 79.8017 64.1129 83.188L58.8792 84.5076ZM79.9027 10.9917C76.931 10.9917 74.3031 11.6349 72.0854 12.91C61.0636 19.2636 59.112 41.3517 66.7076 71.1572C78.5237 68.5285 90.4987 66.6728 102.556 65.6019C109.513 55.7098 117.114 46.2865 125.31 37.3931C108.012 20.5499 91.6342 10.9917 79.9027 10.9917ZM186.229 236.773C186.218 236.773 186.218 236.773 186.229 236.773C170.428 236.773 150.136 224.875 129.08 203.253L125.31 199.383L129.08 195.513C138.907 185.291 147.885 174.284 155.925 162.603L157.421 160.463L160.016 160.241C174.173 159.132 188.217 156.873 202.008 153.488L207.241 152.169L208.727 157.358C219.671 195.99 216.356 223.7 199.59 233.358C195.518 235.66 190.907 236.839 186.229 236.773ZM140.811 199.283C158.109 216.126 174.486 225.685 186.218 225.685C189.179 225.685 191.829 225.041 194.035 223.766C205.057 217.413 207.02 195.314 199.413 165.508C187.594 168.14 175.615 169.996 163.553 171.063C156.605 180.962 149.007 190.39 140.811 199.283ZM207.241 84.5076L202.008 83.188C188.218 79.7919 174.174 77.5297 160.016 76.4241L157.421 76.2024L155.925 74.0623C147.89 62.3813 138.911 51.3782 129.08 41.1632L125.31 37.2933L129.08 33.4235C156.734 5.03728 183.124 -6.17305 199.59 3.3075C216.356 12.9765 219.683 40.6753 208.727 79.3182L207.241 84.5076ZM163.553 65.6019C176.216 66.7551 188.247 68.629 199.413 71.1572C207.02 41.3517 205.057 19.2636 194.035 12.91C183.08 6.57856 162.489 16.2809 140.811 37.3931C149.003 46.2869 156.6 55.7102 163.553 65.6019ZM79.9027 236.773C75.2212 236.841 70.6058 235.662 66.5302 233.358C49.7646 223.7 46.4381 196.001 57.4044 157.358L58.8681 152.169L64.1018 153.488C76.9089 156.715 91.0354 158.988 106.071 160.241L108.677 160.463L110.163 162.603C118.208 174.283 127.19 185.289 137.019 195.513L140.789 199.383L137.019 203.253C115.973 224.875 95.6815 236.773 79.9027 236.773ZM66.7076 165.508C59.101 195.314 61.0636 217.413 72.0854 223.766C83.0296 230.009 103.61 220.384 125.31 199.283C117.117 190.383 109.517 180.956 102.556 171.063C90.4981 169.997 78.5229 168.141 66.7076 165.508ZM133.06 172.472C123.935 172.472 114.554 172.072 105.162 171.296L102.556 171.074L101.059 168.934C95.747 161.301 90.7529 153.451 86.09 145.405C81.4409 137.352 77.1276 129.11 73.161 120.7L72.0633 118.338L73.161 115.976C77.127 107.566 81.4403 99.324 86.09 91.2715C90.6806 83.3322 95.7258 75.4151 101.059 67.742L102.556 65.6019L105.162 65.3801C123.731 63.8056 142.4 63.8056 160.97 65.3801L163.564 65.6019L165.05 67.742C175.686 83.0113 185.022 99.146 192.96 115.976L194.08 118.338L192.96 120.7C185.041 137.54 175.704 153.676 165.05 168.934L163.564 171.074L160.97 171.296C151.578 172.072 142.186 172.472 133.06 172.472ZM108.699 160.452C125.11 161.683 141.011 161.683 157.433 160.452C166.601 147.049 174.741 132.971 181.783 118.338C174.753 103.697 166.609 89.6175 157.421 76.2245C141.204 74.9937 124.917 74.9937 108.699 76.2245C99.5078 89.615 91.3633 103.695 84.3381 118.338C91.3876 132.969 99.5311 147.047 108.699 160.452Z" fill="black"/>
<path d="M133.06 94.6645L133.06 99.6645L133.06 99.6645L133.06 94.6645ZM133.06 142.1L133.06 137.1H133.06L133.06 142.1ZM66.6189 165.563L65.3869 170.409L70.0966 171.607L71.4276 166.933L66.6189 165.563ZM61.3852 164.233L62.6171 159.387L62.6102 159.385L61.3852 164.233ZM61.3852 72.4434L60.1628 67.5951L60.1602 67.5958L61.3852 72.4434ZM66.6189 71.1239L71.4284 69.7571L70.1019 65.0893L65.3965 66.2756L66.6189 71.1239ZM68.0936 76.3133L63.2841 77.6801L63.2879 77.6936L63.2918 77.7071L68.0936 76.3133ZM83.2071 115.987L87.7249 113.845L87.7192 113.833L83.2071 115.987ZM84.327 118.349L88.8448 120.491L89.8606 118.349L88.8448 116.207L84.327 118.349ZM83.2071 120.711L87.7175 122.869L87.7212 122.861L87.7249 122.853L83.2071 120.711ZM68.0936 160.385L63.2907 158.995L63.2878 159.005L63.2848 159.016L68.0936 160.385ZM58.9568 84.563L63.7274 83.0658L62.2748 78.4377L57.6049 79.7492L58.9568 84.563ZM58.9568 152.113L57.6032 156.927L62.2719 158.24L63.7266 153.613L58.9568 152.113ZM199.502 165.563L194.691 166.928L196.018 171.606L200.731 170.41L199.502 165.563ZM198.027 160.363L202.837 158.999L202.833 158.985L202.829 158.97L198.027 160.363ZM182.903 120.7L178.385 122.842L178.389 122.85L178.392 122.858L182.903 120.7ZM182.903 115.976L178.392 113.819L178.388 113.827L178.385 113.834L182.903 115.976ZM198.027 76.3022L202.829 77.6953L202.833 77.6822L202.837 77.669L198.027 76.3022ZM199.502 71.1128L200.722 66.2639L196.018 65.0806L194.692 69.746L199.502 71.1128ZM204.747 72.4323L205.972 67.5848L205.966 67.5834L204.747 72.4323ZM204.747 164.233L203.521 159.385L203.517 159.386L204.747 164.233ZM194.057 118.338L189.525 116.226L188.545 118.329L189.518 120.435L194.057 118.338ZM207.164 152.113L202.387 153.591L203.827 158.245L208.517 156.927L207.164 152.113ZM207.164 84.563L208.517 79.7497L203.847 78.4362L202.393 83.0653L207.164 84.563ZM58.8792 84.5076L54.0704 85.8771L55.3988 90.5415L60.1015 89.3558L58.8792 84.5076ZM57.4044 79.3293L52.5943 80.694L52.5957 80.6988L57.4044 79.3293ZM66.5302 3.3075L69.0281 7.63881L69.0297 7.63789L66.5302 3.3075ZM137.041 33.4235L140.622 29.9344L140.622 29.9344L137.041 33.4235ZM140.811 37.2933L144.392 40.7824L147.792 37.2933L144.392 33.8043L140.811 37.2933ZM137.041 41.1632L133.46 37.6741L133.449 37.6854L133.438 37.6968L137.041 41.1632ZM110.185 74.0623L114.282 76.9282L114.292 76.9135L114.303 76.8988L110.185 74.0623ZM108.688 76.2024L109.112 81.1844L111.444 80.9859L112.785 79.0683L108.688 76.2024ZM106.082 76.4241L106.475 81.4087L106.491 81.4074L106.506 81.4061L106.082 76.4241ZM64.1129 83.188L62.92 78.3324L62.9053 78.336L62.8906 78.3398L64.1129 83.188ZM72.0854 12.91L69.5931 8.57548L69.5883 8.57822L72.0854 12.91ZM66.7076 71.1572L61.8624 72.3919L63.0599 77.0909L67.7934 76.0379L66.7076 71.1572ZM125.31 37.3931L128.986 40.7814L132.283 37.2043L128.798 33.8108L125.31 37.3931ZM129.08 203.253L132.662 199.764L132.661 199.764L129.08 203.253ZM125.31 199.383L121.728 195.894L118.329 199.383L121.728 202.872L125.31 199.383ZM129.08 195.513L132.661 199.002L132.673 198.99L132.684 198.978L129.08 195.513ZM155.925 162.603L151.827 159.737L151.816 159.753L151.806 159.768L155.925 162.603ZM157.421 160.463L156.996 155.481L154.665 155.68L153.324 157.597L157.421 160.463ZM160.016 160.241L159.626 155.256L159.608 155.258L159.59 155.259L160.016 160.241ZM202.008 153.488L203.2 158.344L203.215 158.34L203.23 158.337L202.008 153.488ZM207.241 152.169L212.048 150.792L210.715 146.136L206.019 147.32L207.241 152.169ZM208.727 157.358L213.538 155.995L213.534 155.982L208.727 157.358ZM199.59 233.358L202.051 237.71L202.069 237.7L202.086 237.69L199.59 233.358ZM140.811 199.283L137.134 195.895L133.838 199.472L137.323 202.865L140.811 199.283ZM194.035 223.766L191.538 219.434L191.533 219.437L194.035 223.766ZM199.413 165.508L204.258 164.272L203.059 159.574L198.326 160.628L199.413 165.508ZM163.553 171.063L163.113 166.083L160.797 166.288L159.461 168.191L163.553 171.063ZM207.241 84.5076L206.019 89.3558L210.715 90.5398L212.048 85.8839L207.241 84.5076ZM202.008 83.188L203.23 78.3398L203.217 78.3364L203.203 78.3331L202.008 83.188ZM160.016 76.4241L159.59 81.406L159.609 81.4075L159.627 81.409L160.016 76.4241ZM157.421 76.2024L153.324 79.0683L154.665 80.985L156.996 81.1842L157.421 76.2024ZM155.925 74.0623L151.805 76.896L151.816 76.9121L151.827 76.9282L155.925 74.0623ZM129.08 41.1632L132.682 37.6959L132.672 37.685L132.661 37.6741L129.08 41.1632ZM125.31 37.2933L121.728 33.8043L118.329 37.2933L121.728 40.7824L125.31 37.2933ZM129.08 33.4235L125.498 29.9344L125.498 29.9344L129.08 33.4235ZM199.59 3.3075L202.088 -1.02381L202.085 -1.02562L199.59 3.3075ZM208.727 79.3182L213.534 80.6945L213.538 80.682L208.727 79.3182ZM163.553 65.6019L159.463 68.4774L160.794 70.3713L163.1 70.5813L163.553 65.6019ZM199.413 71.1572L198.309 76.0337L203.055 77.1082L204.258 72.3936L199.413 71.1572ZM194.035 12.91L191.533 17.239L191.538 17.2418L194.035 12.91ZM140.811 37.3931L137.323 33.8112L133.839 37.2038L137.133 40.7805L140.811 37.3931ZM79.9027 236.773V231.773H79.8664L79.8301 231.773L79.9027 236.773ZM66.5302 233.358L64.0344 237.69L64.0517 237.7L64.0692 237.71L66.5302 233.358ZM57.4044 157.358L62.2145 158.723L62.2167 158.715L57.4044 157.358ZM58.8681 152.169L60.0904 147.32L55.3758 146.132L54.0559 150.811L58.8681 152.169ZM64.1018 153.488L62.8795 158.337L62.8802 158.337L64.1018 153.488ZM106.071 160.241L106.495 155.259L106.486 155.258L106.071 160.241ZM108.677 160.463L112.784 157.611L111.443 155.68L109.101 155.481L108.677 160.463ZM110.163 162.603L114.281 159.767L114.275 159.759L114.27 159.751L110.163 162.603ZM137.019 195.513L133.414 198.978L133.426 198.99L133.437 199.002L137.019 195.513ZM140.789 199.383L144.37 202.872L147.769 199.383L144.37 195.894L140.789 199.383ZM137.019 203.253L133.437 199.764L133.436 199.765L137.019 203.253ZM66.7076 165.508L67.7952 160.628L63.062 159.573L61.8629 164.272L66.7076 165.508ZM72.0854 223.766L69.5883 228.098L69.5982 228.104L69.608 228.109L72.0854 223.766ZM125.31 199.283L128.795 202.868L132.283 199.476L128.988 195.897L125.31 199.283ZM102.556 171.063L106.646 168.186L105.309 166.287L102.997 166.083L102.556 171.063ZM105.162 171.296L104.738 176.278L104.75 176.279L105.162 171.296ZM102.556 171.074L98.4591 173.94L99.8004 175.858L102.132 176.056L102.556 171.074ZM101.059 168.934L96.9553 171.79L96.9621 171.8L101.059 168.934ZM86.09 145.405L81.7598 147.905L81.7639 147.912L86.09 145.405ZM73.161 120.7L68.6268 122.807L68.6328 122.82L68.6388 122.833L73.161 120.7ZM73.161 115.976L68.6386 113.844L68.6327 113.856L68.6268 113.869L73.161 115.976ZM86.09 91.2715L81.7615 88.7687L81.76 88.7712L86.09 91.2715ZM101.059 67.742L96.9621 64.8761L96.9579 64.8821L96.9537 64.8882L101.059 67.742ZM105.162 65.3801L104.74 60.398L104.738 60.3981L105.162 65.3801ZM160.97 65.3801L161.396 60.3983L161.392 60.398L160.97 65.3801ZM163.564 65.6019L167.672 62.7503L166.331 60.8202L163.99 60.6201L163.564 65.6019ZM165.05 67.742L160.943 70.5935L160.947 70.5997L165.05 67.742ZM192.96 115.976L188.437 118.109L188.442 118.119L192.96 115.976ZM194.08 118.338L198.597 120.48L199.613 118.338L198.597 116.196L194.08 118.338ZM192.96 120.7L188.442 118.558L188.438 118.565L188.435 118.572L192.96 120.7ZM165.05 168.934L160.951 166.072L160.943 166.083L165.05 168.934ZM163.564 171.074L163.99 176.056L166.331 175.856L167.672 173.926L163.564 171.074ZM160.97 171.296L161.382 176.279L161.395 176.278L160.97 171.296ZM108.699 160.452L104.572 163.274L105.929 165.258L108.325 165.438L108.699 160.452ZM157.433 160.452L157.806 165.438L160.203 165.258L161.559 163.275L157.433 160.452ZM157.421 76.2245L161.545 73.3962L160.189 71.4202L157.8 71.2389L157.421 76.2245ZM108.699 76.2245L108.321 71.2389L105.932 71.4202L104.577 73.395L108.699 76.2245ZM84.3381 118.338L79.83 116.175L78.7902 118.343L79.8337 120.509L84.3381 118.338ZM133.06 89.6645C129.289 89.6645 125.555 90.4073 122.07 91.8505L125.897 101.089C128.168 100.149 130.602 99.6645 133.06 99.6645L133.06 89.6645ZM122.07 91.8505C118.586 93.2937 115.42 95.4091 112.754 98.0758L119.825 105.147C121.563 103.409 123.626 102.03 125.897 101.089L122.07 91.8505ZM112.754 98.0758C110.087 100.743 107.972 103.908 106.528 107.393L115.767 111.219C116.708 108.948 118.087 106.885 119.825 105.147L112.754 98.0758ZM106.528 107.393C105.085 110.877 104.342 114.611 104.342 118.382H114.342C114.342 115.924 114.826 113.49 115.767 111.219L106.528 107.393ZM104.342 118.382C104.342 122.154 105.085 125.888 106.528 129.372L115.767 125.546C114.826 123.275 114.342 120.841 114.342 118.382H104.342ZM106.528 129.372C107.972 132.857 110.087 136.022 112.754 138.689L119.825 131.618C118.087 129.88 116.708 127.817 115.767 125.546L106.528 129.372ZM112.754 138.689C115.42 141.356 118.586 143.471 122.07 144.914L125.897 135.676C123.626 134.735 121.563 133.356 119.825 131.618L112.754 138.689ZM122.07 144.914C125.555 146.358 129.289 147.1 133.06 147.1L133.06 137.1C130.602 137.1 128.168 136.616 125.897 135.676L122.07 144.914ZM133.06 147.1C136.832 147.1 140.566 146.358 144.05 144.914L140.223 135.676C137.952 136.616 135.518 137.1 133.06 137.1L133.06 147.1ZM144.05 144.914C147.534 143.471 150.7 141.356 153.367 138.689L146.296 131.618C144.558 133.356 142.494 134.735 140.223 135.676L144.05 144.914ZM153.367 138.689C156.034 136.022 158.149 132.857 159.592 129.372L150.353 125.546C149.413 127.817 148.034 129.88 146.296 131.618L153.367 138.689ZM159.592 129.372C161.036 125.888 161.778 122.154 161.778 118.382H151.778C151.778 120.841 151.294 123.275 150.353 125.546L159.592 129.372ZM161.778 118.382C161.778 114.611 161.036 110.877 159.592 107.393L150.353 111.219C151.294 113.49 151.778 115.924 151.778 118.382H161.778ZM159.592 107.393C158.149 103.908 156.034 100.743 153.367 98.0758L146.296 105.147C148.034 106.885 149.413 108.948 150.353 111.219L159.592 107.393ZM153.367 98.0758C150.7 95.4091 147.534 93.2937 144.05 91.8505L140.223 101.089C142.494 102.03 144.558 103.409 146.296 105.147L153.367 98.0758ZM144.05 91.8505C140.566 90.4073 136.832 89.6645 133.06 89.6645L133.06 99.6645C135.518 99.6645 137.952 100.149 140.223 101.089L144.05 91.8505ZM67.8508 160.718L62.6171 159.387L60.1532 169.079L65.3869 170.409L67.8508 160.718ZM62.6102 159.385C43.462 154.546 28.808 148.113 19.0583 140.824C9.31158 133.536 5 125.845 5 118.338H-5C-5 130.137 1.87658 140.463 13.0702 148.833C24.2609 157.2 40.2995 164.062 60.1602 169.08L62.6102 159.385ZM5 118.338C5 110.832 9.31158 103.14 19.0583 95.8525C28.808 88.5629 43.462 82.1298 62.6102 77.291L60.1602 67.5958C40.2995 72.6146 24.2609 79.4765 13.0702 87.8436C1.87658 96.2129 -5 106.54 -5 118.338H5ZM62.6075 77.2917L67.8412 75.9722L65.3965 66.2756L60.1628 67.5951L62.6075 77.2917ZM61.8093 72.4907L63.2841 77.6801L72.9032 74.9464L71.4284 69.7571L61.8093 72.4907ZM63.2918 77.7071C67.3193 91.5813 72.4707 105.104 78.6949 118.142L87.7192 113.833C81.729 101.286 76.7714 88.2718 72.8954 74.9194L63.2918 77.7071ZM78.6892 118.13L79.8092 120.491L88.8448 116.207L87.7249 113.845L78.6892 118.13ZM79.8091 116.207L78.6892 118.569L87.7249 122.853L88.8448 120.491L79.8091 116.207ZM78.6966 118.553C72.4608 131.589 67.3082 145.115 63.2907 158.995L72.8965 161.775C76.7614 148.422 81.7185 135.409 87.7175 122.869L78.6966 118.553ZM63.2848 159.016L61.8101 164.194L71.4276 166.933L72.9024 161.755L63.2848 159.016ZM57.6049 79.7492C42.4627 84.002 29.9166 89.4652 21.0356 95.7203C12.3482 101.839 6.11054 109.505 6.11054 118.338H16.1105C16.1105 114.464 18.9709 109.406 26.794 103.896C34.4236 98.5221 45.8007 93.4514 60.3088 89.3767L57.6049 79.7492ZM6.11054 118.338C6.11054 127.167 12.3498 134.83 21.0356 140.948C29.9159 147.202 42.4614 152.668 57.6032 156.927L60.3104 147.3C45.8019 143.22 34.4243 138.146 26.794 132.772C18.9693 127.261 16.1105 122.206 16.1105 118.338H6.11054ZM63.7266 153.613C67.2872 142.289 71.5863 131.21 76.5962 120.448L67.5303 116.228C62.3361 127.386 57.8787 138.872 54.187 150.614L63.7266 153.613ZM76.595 116.226C71.5802 105.468 67.2816 94.3904 63.7274 83.0658L54.1862 86.0602C57.8724 97.8051 62.3305 109.294 67.5315 120.451L76.595 116.226ZM204.312 164.199L202.837 158.999L193.217 161.727L194.691 166.928L204.312 164.199ZM202.829 158.97C198.805 145.095 193.649 131.573 187.413 118.542L178.392 122.858C184.393 135.396 189.353 148.406 193.225 161.756L202.829 158.97ZM187.42 118.558L186.3 116.196L177.265 120.48L178.385 122.842L187.42 118.558ZM186.3 120.48L187.42 118.119L178.385 113.834L177.265 116.196L186.3 120.48ZM187.413 118.133C193.647 105.097 198.803 91.5729 202.829 77.6953L193.225 74.909C189.351 88.2622 184.39 101.276 178.392 113.819L187.413 118.133ZM202.837 77.669L204.311 72.4796L194.692 69.746L193.217 74.9353L202.837 77.669ZM198.282 75.9617L203.527 77.2812L205.966 67.5834L200.722 66.2639L198.282 75.9617ZM203.521 77.2799C222.664 82.1186 237.315 88.5516 247.063 95.8424C256.808 103.131 261.121 110.825 261.121 118.338H271.121C271.121 106.535 264.245 96.2056 253.052 87.8343C241.863 79.4656 225.827 72.6036 205.972 67.5848L203.521 77.2799ZM261.121 118.338C261.121 125.851 256.808 133.542 247.064 140.828C237.316 148.116 222.664 154.546 203.521 159.385L205.972 169.08C225.827 164.062 241.862 157.203 253.052 148.837C264.245 140.469 271.121 130.142 271.121 118.338H261.121ZM203.517 159.386L198.272 160.717L200.731 170.41L205.976 169.079L203.517 159.386ZM189.518 120.435C194.759 131.78 199.078 142.894 202.387 153.591L211.941 150.636C208.486 139.467 204 127.938 198.596 116.241L189.518 120.435ZM208.517 156.927C223.664 152.668 236.21 147.202 245.089 140.947C253.775 134.829 260.01 127.166 260.01 118.338H250.01C250.01 122.207 247.153 127.262 239.33 132.772C231.702 138.146 220.325 143.22 205.811 147.3L208.517 156.927ZM260.01 118.338C260.01 109.505 253.772 101.841 245.085 95.7241C236.204 89.4708 223.658 84.0078 208.517 79.7497L205.81 89.3763C220.319 93.4567 231.697 98.5276 239.327 103.9C247.151 109.409 250.01 114.464 250.01 118.338H260.01ZM202.393 83.0653C198.838 94.3898 194.539 105.467 189.525 116.226L198.589 120.45C203.789 109.293 208.247 97.8049 211.934 86.0607L202.393 83.0653ZM63.688 83.138L62.2132 77.9598L52.5957 80.6988L54.0704 85.8771L63.688 83.138ZM62.2146 77.9646C56.832 58.9923 55.0833 43.1135 56.5322 31.045C57.9801 18.9844 62.4979 11.4049 69.0281 7.63881L64.0322 -1.02381C53.7968 4.87915 48.2686 15.9835 46.6035 29.853C44.9393 43.7147 47.0104 61.0122 52.5943 80.694L62.2146 77.9646ZM69.0297 7.63789C75.3576 3.98536 84.2704 3.91819 95.6163 8.75642C106.918 13.5759 119.903 22.9973 133.46 36.9126L140.622 29.9344C126.514 15.4524 112.465 5.07001 99.5388 -0.442143C86.6567 -5.93548 74.1467 -6.86201 64.0306 -1.0229L69.0297 7.63789ZM133.46 36.9125L137.23 40.7824L144.392 33.8043L140.622 29.9344L133.46 36.9125ZM137.23 33.8043L133.46 37.6741L140.622 44.6522L144.392 40.7824L137.23 33.8043ZM133.438 37.6968C123.419 48.1116 114.265 59.325 106.067 71.2259L114.303 76.8988C122.193 65.445 131.002 54.6529 140.644 44.6295L133.438 37.6968ZM106.088 71.1964L104.591 73.3365L112.785 79.0683L114.282 76.9282L106.088 71.1964ZM108.264 71.2204L105.658 71.4421L106.506 81.4061L109.112 81.1844L108.264 71.2204ZM105.689 71.4396C91.2699 72.5763 76.9665 74.8815 62.92 78.3324L65.3058 88.0437C78.8269 84.7218 92.5952 82.5029 106.475 81.4087L105.689 71.4396ZM62.8906 78.3398L57.6569 79.6593L60.1015 89.3558L65.3352 88.0363L62.8906 78.3398ZM79.9027 5.99173C76.2028 5.99173 72.6866 6.79671 69.5931 8.57548L74.5778 17.2445C75.9196 16.473 77.6593 15.9917 79.9027 15.9917V5.99173ZM69.5883 8.57822C61.9333 12.991 58.4004 22.2108 57.4357 32.7848C56.4498 43.5906 57.9833 57.1697 61.8624 72.3919L71.5527 69.9225C67.8364 55.3391 66.5478 42.9715 67.3943 33.6934C68.2619 24.1837 71.2157 19.1827 74.5825 17.2418L69.5883 8.57822ZM67.7934 76.0379C79.3974 73.4563 91.1574 71.634 102.999 70.5823L102.114 60.6215C89.8399 61.7116 77.65 63.6006 65.6218 66.2765L67.7934 76.0379ZM106.646 68.4783C113.477 58.7657 120.94 49.5134 128.986 40.7814L121.633 34.0048C113.289 43.0596 105.55 52.6539 98.4664 62.7255L106.646 68.4783ZM128.798 33.8108C119.942 25.1882 111.201 18.3084 103.034 13.5548C94.9458 8.84748 87.0208 5.99173 79.9027 5.99173V15.9917C84.5161 15.9917 90.6456 17.9151 98.0036 22.1976C105.282 26.4339 113.379 32.7548 121.821 40.9754L128.798 33.8108ZM186.229 231.773C186.229 231.773 186.229 231.773 186.229 231.773C186.229 231.773 186.229 231.773 186.229 231.773C186.229 231.773 186.229 231.773 186.229 231.773C186.229 231.773 186.229 231.773 186.229 231.773C186.229 231.773 186.229 231.773 186.229 231.773C186.229 231.773 186.229 231.773 186.229 231.773C186.229 231.773 186.229 231.773 186.229 231.773C186.229 231.773 186.229 231.773 186.228 231.773C186.228 231.773 186.228 231.773 186.228 231.773C186.228 231.773 186.228 231.773 186.228 231.773C186.228 231.773 186.228 231.773 186.228 231.773C186.228 231.773 186.228 231.773 186.228 231.773C186.228 231.773 186.228 231.773 186.228 231.773C186.228 231.773 186.228 231.773 186.228 231.773C186.228 231.773 186.228 231.773 186.228 231.773C186.228 231.773 186.228 231.773 186.228 231.773C186.228 231.773 186.228 231.773 186.228 231.773C186.228 231.773 186.228 231.773 186.228 231.773C186.228 231.773 186.228 231.773 186.228 231.773C186.228 231.773 186.228 231.773 186.228 231.773C186.228 231.773 186.228 231.773 186.228 231.773C186.228 231.773 186.228 231.773 186.228 231.773C186.228 231.773 186.228 231.773 186.228 231.773C186.228 231.773 186.228 231.773 186.228 231.773C186.227 231.773 186.227 231.773 186.227 231.773C186.227 231.773 186.227 231.773 186.227 231.773C186.227 231.773 186.227 231.773 186.227 231.773C186.227 231.773 186.227 231.773 186.227 231.773C186.227 231.773 186.227 231.773 186.227 231.773C186.227 231.773 186.227 231.773 186.227 231.773C186.227 231.773 186.227 231.773 186.227 231.773C186.227 231.773 186.227 231.773 186.227 231.773C186.227 231.773 186.227 231.773 186.227 231.773C186.227 231.773 186.227 231.773 186.227 231.773C186.227 231.773 186.227 231.773 186.227 231.773C186.227 231.773 186.227 231.773 186.227 231.773C186.227 231.773 186.227 231.773 186.227 231.773C186.227 231.773 186.227 231.773 186.227 231.773C186.227 231.773 186.227 231.773 186.227 231.773C186.227 231.773 186.227 231.773 186.227 231.773C186.227 231.773 186.227 231.773 186.227 231.773C186.227 231.773 186.227 231.773 186.226 231.773C186.226 231.773 186.226 231.773 186.226 231.773C186.226 231.773 186.226 231.773 186.226 231.773C186.226 231.773 186.226 231.773 186.226 231.773C186.226 231.773 186.226 231.773 186.226 231.773C186.226 231.773 186.226 231.773 186.226 231.773C186.226 231.773 186.226 231.773 186.226 231.773C186.226 231.773 186.226 231.773 186.226 231.773C186.226 231.773 186.226 231.773 186.226 231.773C186.226 231.773 186.226 231.773 186.226 231.773C186.226 231.773 186.226 231.773 186.226 231.773C186.226 231.773 186.226 231.773 186.226 231.773C186.226 231.773 186.226 231.773 186.226 231.773C186.226 231.773 186.226 231.773 186.226 231.773C186.226 231.773 186.226 231.773 186.226 231.773C186.226 231.773 186.226 231.773 186.226 231.773C186.226 231.773 186.226 231.773 186.226 231.773C186.226 231.773 186.226 231.773 186.226 231.773C186.226 231.773 186.226 231.773 186.226 231.773C186.226 231.773 186.226 231.773 186.226 231.773C186.225 231.773 186.225 231.773 186.225 231.773C186.225 231.773 186.225 231.773 186.225 231.773C186.225 231.773 186.225 231.773 186.225 231.773C186.225 231.773 186.225 231.773 186.225 231.773C186.225 231.773 186.225 231.773 186.225 231.773C186.225 231.773 186.225 231.773 186.225 231.773C186.225 231.773 186.225 231.773 186.225 231.773C186.225 231.773 186.225 231.773 186.225 231.773C186.225 231.773 186.225 231.773 186.225 231.773C186.225 231.773 186.225 231.773 186.225 231.773C186.225 231.773 186.225 231.773 186.225 231.773C186.225 231.773 186.225 231.773 186.225 231.773C186.225 231.773 186.225 231.773 186.225 231.773C186.225 231.773 186.225 231.773 186.225 231.773C186.225 231.773 186.225 231.773 186.225 231.773C186.225 231.773 186.225 231.773 186.225 231.773C186.225 231.773 186.225 231.773 186.225 231.773C186.225 231.773 186.225 231.773 186.225 231.773C186.225 231.773 186.225 231.773 186.225 231.773C186.225 231.773 186.225 231.773 186.225 231.773C186.225 231.773 186.225 231.773 186.225 231.773C186.225 231.773 186.225 231.773 186.224 231.773C186.224 231.773 186.224 231.773 186.224 231.773C186.224 231.773 186.224 231.773 186.224 231.773C186.224 231.773 186.224 231.773 186.224 231.773C186.224 231.773 186.224 231.773 186.224 231.773C186.224 231.773 186.224 231.773 186.224 231.773C186.224 231.773 186.224 231.773 186.224 231.773C186.224 231.773 186.224 231.773 186.224 231.773C186.224 231.773 186.224 231.773 186.224 231.773C186.224 231.773 186.224 231.773 186.224 231.773C186.224 231.773 186.224 231.773 186.224 231.773C186.224 231.773 186.224 231.773 186.224 231.773C186.224 231.773 186.224 231.773 186.224 231.773C186.224 231.773 186.224 231.773 186.224 231.773C186.224 231.773 186.224 231.773 186.224 231.773C186.224 231.773 186.224 231.773 186.224 231.773C186.224 231.773 186.224 231.773 186.224 231.773C186.224 231.773 186.224 231.773 186.224 231.773C186.224 231.773 186.224 231.773 186.224 231.773C186.224 231.773 186.224 231.773 186.224 231.773C186.224 231.773 186.224 231.773 186.224 231.773C186.224 231.773 186.224 231.773 186.224 231.773C186.224 231.773 186.224 231.773 186.224 231.773C186.224 231.773 186.224 231.773 186.224 231.773C186.224 231.773 186.224 231.773 186.224 231.773C186.223 231.773 186.223 231.773 186.223 231.773C186.223 231.773 186.223 231.773 186.223 231.773C186.223 231.773 186.223 231.773 186.223 231.773C186.223 231.773 186.223 231.773 186.223 231.773C186.223 231.773 186.223 231.773 186.223 231.773C186.223 231.773 186.223 231.773 186.223 231.773C186.223 231.773 186.223 231.773 186.223 231.773C186.223 231.773 186.223 231.773 186.223 231.773C186.223 231.773 186.223 231.773 186.223 231.773C186.223 231.773 186.223 231.773 186.223 231.773C186.223 231.773 186.223 231.773 186.223 231.773C186.223 231.773 186.223 231.773 186.223 231.773C186.223 231.773 186.223 231.773 186.223 231.773C186.223 231.773 186.223 231.773 186.223 231.773C186.223 231.773 186.223 231.773 186.223 231.773C186.223 231.773 186.223 231.773 186.223 231.773C186.223 231.773 186.223 231.773 186.223 231.773C186.223 231.773 186.223 231.773 186.223 231.773C186.223 231.773 186.223 231.773 186.223 231.773C186.223 231.773 186.223 231.773 186.223 231.773C186.223 231.773 186.223 231.773 186.223 231.773C186.223 231.773 186.223 231.773 186.223 231.773C186.223 231.773 186.223 231.773 186.223 231.773C186.223 231.773 186.223 231.773 186.223 231.773C186.223 231.773 186.223 231.773 186.223 231.773C186.223 231.773 186.223 231.773 186.223 231.773C186.223 231.773 186.223 231.773 186.223 231.773C186.223 231.773 186.223 231.773 186.223 231.773C186.223 231.773 186.223 231.773 186.223 231.773C186.223 231.773 186.222 231.773 186.222 231.773C186.222 231.773 186.222 231.773 186.222 231.773C186.222 231.773 186.222 231.773 186.222 231.773C186.222 231.773 186.222 231.773 186.222 231.773C186.222 231.773 186.222 231.773 186.222 231.773C186.222 231.773 186.222 231.773 186.222 231.773C186.222 231.773 186.222 231.773 186.222 231.773C186.222 231.773 186.222 231.773 186.222 231.773C186.222 231.773 186.222 231.773 186.222 231.773C186.222 231.773 186.222 231.773 186.222 231.773C186.222 231.773 186.222 231.773 186.222 231.773C186.222 231.773 186.222 231.773 186.222 231.773C186.222 231.773 186.222 231.773 186.222 231.773C186.222 231.773 186.222 231.773 186.222 231.773C186.222 231.773 186.222 231.773 186.222 231.773C186.222 231.773 186.222 231.773 186.222 231.773C186.222 231.773 186.222 231.773 186.222 231.773C186.222 231.773 186.222 231.773 186.222 231.773C186.222 231.773 186.222 231.773 186.222 231.773C186.222 231.773 186.222 231.773 186.222 231.773C186.222 231.773 186.222 231.773 186.222 231.773C186.222 231.773 186.222 231.773 186.222 231.773C186.222 231.773 186.222 231.773 186.222 231.773C186.222 231.773 186.222 231.773 186.222 231.773C186.222 231.773 186.222 231.773 186.222 231.773C186.222 231.773 186.222 231.773 186.222 231.773C186.222 231.773 186.222 231.773 186.222 231.773C186.222 231.773 186.222 231.773 186.222 231.773C186.222 231.773 186.222 231.773 186.222 231.773C186.222 231.773 186.222 231.773 186.222 231.773C186.222 231.773 186.222 231.773 186.222 231.773C186.222 231.773 186.222 231.773 186.222 231.773C186.222 231.773 186.222 231.773 186.222 231.773C186.222 231.773 186.222 231.773 186.222 231.773C186.222 231.773 186.222 231.773 186.222 231.773C186.222 231.773 186.222 231.773 186.222 231.773C186.222 231.773 186.222 231.773 186.222 231.773C186.222 231.773 186.222 231.773 186.222 231.773C186.222 231.773 186.222 231.773 186.222 231.773C186.222 231.773 186.222 231.773 186.222 231.773C186.221 231.773 186.221 231.773 186.221 231.773C186.221 231.773 186.221 231.773 186.221 231.773C186.221 231.773 186.221 231.773 186.221 231.773C186.221 231.773 186.221 231.773 186.221 231.773C186.221 231.773 186.221 231.773 186.221 231.773C186.221 231.773 186.221 231.773 186.221 231.773C186.221 231.773 186.221 231.773 186.221 231.773C186.221 231.773 186.221 231.773 186.221 231.773C186.221 231.773 186.221 231.773 186.221 231.773C186.221 231.773 186.221 231.773 186.221 231.773C186.221 231.773 186.221 231.773 186.221 231.773C186.221 231.773 186.221 231.773 186.221 231.773C186.221 231.773 186.221 231.773 186.221 231.773C186.221 231.773 186.221 231.773 186.221 231.773C186.221 231.773 186.221 231.773 186.221 231.773C186.221 231.773 186.221 231.773 186.221 231.773C186.221 231.773 186.221 231.773 186.221 231.773C186.221 231.773 186.221 231.773 186.221 231.773C186.221 231.773 186.221 231.773 186.221 231.773C186.221 231.773 186.221 231.773 186.221 231.773C186.221 231.773 186.221 231.773 186.221 231.773C186.221 231.773 186.221 231.773 186.221 231.773C186.221 231.773 186.221 231.773 186.221 231.773C186.221 231.773 186.221 231.773 186.221 231.773C186.221 231.773 186.221 231.773 186.221 231.773C186.221 231.773 186.221 231.773 186.221 231.773C186.221 231.773 186.221 231.773 186.221 231.773C186.221 231.773 186.221 231.773 186.221 231.773C186.221 231.773 186.221 231.773 186.221 231.773C186.221 231.773 186.221 231.773 186.221 231.773C186.221 231.773 186.221 231.773 186.221 231.773C186.221 231.773 186.221 231.773 186.221 231.773C186.221 231.773 186.221 231.773 186.221 231.773C186.221 231.773 186.221 231.773 186.221 231.773C186.221 231.773 186.221 231.773 186.221 231.773C186.221 231.773 186.221 231.773 186.221 231.773C186.221 231.773 186.221 231.773 186.221 231.773C186.221 231.773 186.221 231.773 186.221 231.773C186.221 231.773 186.221 231.773 186.221 231.773C186.221 231.773 186.221 231.773 186.221 231.773C186.221 231.773 186.221 231.773 186.221 231.773C186.221 231.773 186.221 231.773 186.221 231.773C186.221 231.773 186.221 231.773 186.221 231.773C186.221 231.773 186.221 231.773 186.221 231.773C186.221 231.773 186.221 231.773 186.221 231.773C186.221 231.773 186.221 231.773 186.221 231.773C186.221 231.773 186.221 231.773 186.221 231.773C186.221 231.773 186.221 231.773 186.221 231.773C186.221 231.773 186.221 231.773 186.221 231.773C186.221 231.773 186.221 231.773 186.221 231.773C186.221 231.773 186.221 231.773 186.221 231.773C186.221 231.773 186.221 231.773 186.221 231.773C186.221 231.773 186.221 231.773 186.221 231.773C186.221 231.773 186.221 231.773 186.221 231.773C186.221 231.773 186.221 231.773 186.221 231.773C186.221 231.773 186.221 231.773 186.221 231.773C186.221 231.773 186.221 231.773 186.221 231.773C186.221 231.773 186.221 231.773 186.221 231.773C186.221 231.773 186.221 231.773 186.221 231.773C186.221 231.773 186.221 231.773 186.221 231.773C186.221 231.773 186.221 231.773 186.221 231.773C186.221 231.773 186.221 231.773 186.221 231.773C186.221 231.773 186.221 231.773 186.221 231.773C186.221 231.773 186.221 231.773 186.221 231.773C186.221 231.773 186.221 231.773 186.221 231.773C186.221 231.773 186.221 231.773 186.221 231.773C186.221 231.773 186.221 231.773 186.221 231.773C186.221 231.773 186.221 231.773 186.221 231.773C186.221 231.773 186.221 231.773 186.221 231.773C186.221 231.773 186.221 231.773 186.221 231.773C186.221 231.773 186.221 231.773 186.221 231.773C186.221 231.773 186.221 231.773 186.221 231.773C186.221 231.773 186.221 231.773 186.221 231.773C186.221 231.773 186.221 231.773 186.221 231.773C186.221 231.773 186.221 231.773 186.221 231.773C186.221 231.773 186.221 231.773 186.221 231.773C186.221 231.773 186.221 231.773 186.221 231.773C186.221 231.773 186.221 231.773 186.221 231.773C186.221 231.773 186.221 231.773 186.221 231.773C186.221 231.773 186.221 231.773 186.221 236.773C186.221 241.773 186.221 241.773 186.221 241.773C186.221 241.773 186.221 241.773 186.221 241.773C186.221 241.773 186.221 241.773 186.221 241.773C186.221 241.773 186.221 241.773 186.221 241.773C186.221 241.773 186.221 241.773 186.221 241.773C186.221 241.773 186.221 241.773 186.221 241.773C186.221 241.773 186.221 241.773 186.221 241.773C186.221 241.773 186.221 241.773 186.221 241.773C186.221 241.773 186.221 241.773 186.221 241.773C186.221 241.773 186.221 241.773 186.221 241.773C186.221 241.773 186.221 241.773 186.221 241.773C186.221 241.773 186.221 241.773 186.221 241.773C186.221 241.773 186.221 241.773 186.221 241.773C186.221 241.773 186.221 241.773 186.221 241.773C186.221 241.773 186.221 241.773 186.221 241.773C186.221 241.773 186.221 241.773 186.221 241.773C186.221 241.773 186.221 241.773 186.221 241.773C186.221 241.773 186.221 241.773 186.221 241.773C186.221 241.773 186.221 241.773 186.221 241.773C186.221 241.773 186.221 241.773 186.221 241.773C186.221 241.773 186.221 241.773 186.221 241.773C186.221 241.773 186.221 241.773 186.221 241.773C186.221 241.773 186.221 241.773 186.221 241.773C186.221 241.773 186.221 241.773 186.221 241.773C186.221 241.773 186.221 241.773 186.221 241.773C186.221 241.773 186.221 241.773 186.221 241.773C186.221 241.773 186.221 241.773 186.221 241.773C186.221 241.773 186.221 241.773 186.221 241.773C186.221 241.773 186.221 241.773 186.221 241.773C186.221 241.773 186.221 241.773 186.221 241.773C186.221 241.773 186.221 241.773 186.221 241.773C186.221 241.773 186.221 241.773 186.221 241.773C186.221 241.773 186.221 241.773 186.221 241.773C186.221 241.773 186.221 241.773 186.221 241.773C186.221 241.773 186.221 241.773 186.221 241.773C186.221 241.773 186.221 241.773 186.221 241.773C186.221 241.773 186.221 241.773 186.221 241.773C186.221 241.773 186.221 241.773 186.221 241.773C186.221 241.773 186.221 241.773 186.221 241.773C186.221 241.773 186.221 241.773 186.221 241.773C186.221 241.773 186.221 241.773 186.221 241.773C186.221 241.773 186.221 241.773 186.221 241.773C186.221 241.773 186.221 241.773 186.221 241.773C186.221 241.773 186.221 241.773 186.221 241.773C186.221 241.773 186.221 241.773 186.221 241.773C186.221 241.773 186.221 241.773 186.221 241.773C186.221 241.773 186.221 241.773 186.221 241.773C186.221 241.773 186.221 241.773 186.221 241.773C186.221 241.773 186.221 241.773 186.221 241.773C186.221 241.773 186.221 241.773 186.221 241.773C186.221 241.773 186.221 241.773 186.221 241.773C186.221 241.773 186.221 241.773 186.221 241.773C186.221 241.773 186.221 241.773 186.221 241.773C186.221 241.773 186.221 241.773 186.221 241.773C186.221 241.773 186.221 241.773 186.221 241.773C186.221 241.773 186.221 241.773 186.221 241.773C186.221 241.773 186.221 241.773 186.221 241.773C186.221 241.773 186.221 241.773 186.221 241.773C186.221 241.773 186.221 241.773 186.221 241.773C186.221 241.773 186.221 241.773 186.221 241.773C186.221 241.773 186.221 241.773 186.221 241.773C186.221 241.773 186.221 241.773 186.221 241.773C186.221 241.773 186.221 241.773 186.221 241.773C186.221 241.773 186.221 241.773 186.221 241.773C186.221 241.773 186.221 241.773 186.221 241.773C186.221 241.773 186.221 241.773 186.221 241.773C186.221 241.773 186.221 241.773 186.221 241.773C186.221 241.773 186.221 241.773 186.221 241.773C186.221 241.773 186.221 241.773 186.221 241.773C186.221 241.773 186.221 241.773 186.221 241.773C186.221 241.773 186.221 241.773 186.221 241.773C186.221 241.773 186.221 241.773 186.221 241.773C186.221 241.773 186.221 241.773 186.221 241.773C186.221 241.773 186.221 241.773 186.221 241.773C186.221 241.773 186.221 241.773 186.221 241.773C186.221 241.773 186.221 241.773 186.221 241.773C186.221 241.773 186.221 241.773 186.221 241.773C186.221 241.773 186.221 241.773 186.221 241.773C186.221 241.773 186.221 241.773 186.221 241.773C186.221 241.773 186.221 241.773 186.222 241.773C186.222 241.773 186.222 241.773 186.222 241.773C186.222 241.773 186.222 241.773 186.222 241.773C186.222 241.773 186.222 241.773 186.222 241.773C186.222 241.773 186.222 241.773 186.222 241.773C186.222 241.773 186.222 241.773 186.222 241.773C186.222 241.773 186.222 241.773 186.222 241.773C186.222 241.773 186.222 241.773 186.222 241.773C186.222 241.773 186.222 241.773 186.222 241.773C186.222 241.773 186.222 241.773 186.222 241.773C186.222 241.773 186.222 241.773 186.222 241.773C186.222 241.773 186.222 241.773 186.222 241.773C186.222 241.773 186.222 241.773 186.222 241.773C186.222 241.773 186.222 241.773 186.222 241.773C186.222 241.773 186.222 241.773 186.222 241.773C186.222 241.773 186.222 241.773 186.222 241.773C186.222 241.773 186.222 241.773 186.222 241.773C186.222 241.773 186.222 241.773 186.222 241.773C186.222 241.773 186.222 241.773 186.222 241.773C186.222 241.773 186.222 241.773 186.222 241.773C186.222 241.773 186.222 241.773 186.222 241.773C186.222 241.773 186.222 241.773 186.222 241.773C186.222 241.773 186.222 241.773 186.222 241.773C186.222 241.773 186.222 241.773 186.222 241.773C186.222 241.773 186.222 241.773 186.222 241.773C186.222 241.773 186.222 241.773 186.222 241.773C186.222 241.773 186.222 241.773 186.222 241.773C186.222 241.773 186.222 241.773 186.222 241.773C186.222 241.773 186.222 241.773 186.222 241.773C186.222 241.773 186.222 241.773 186.222 241.773C186.222 241.773 186.222 241.773 186.222 241.773C186.222 241.773 186.222 241.773 186.222 241.773C186.222 241.773 186.222 241.773 186.222 241.773C186.222 241.773 186.222 241.773 186.222 241.773C186.222 241.773 186.222 241.773 186.222 241.773C186.222 241.773 186.222 241.773 186.222 241.773C186.222 241.773 186.222 241.773 186.222 241.773C186.222 241.773 186.222 241.773 186.222 241.773C186.222 241.773 186.222 241.773 186.222 241.773C186.222 241.773 186.222 241.773 186.222 241.773C186.222 241.773 186.223 241.773 186.223 241.773C186.223 241.773 186.223 241.773 186.223 241.773C186.223 241.773 186.223 241.773 186.223 241.773C186.223 241.773 186.223 241.773 186.223 241.773C186.223 241.773 186.223 241.773 186.223 241.773C186.223 241.773 186.223 241.773 186.223 241.773C186.223 241.773 186.223 241.773 186.223 241.773C186.223 241.773 186.223 241.773 186.223 241.773C186.223 241.773 186.223 241.773 186.223 241.773C186.223 241.773 186.223 241.773 186.223 241.773C186.223 241.773 186.223 241.773 186.223 241.773C186.223 241.773 186.223 241.773 186.223 241.773C186.223 241.773 186.223 241.773 186.223 241.773C186.223 241.773 186.223 241.773 186.223 241.773C186.223 241.773 186.223 241.773 186.223 241.773C186.223 241.773 186.223 241.773 186.223 241.773C186.223 241.773 186.223 241.773 186.223 241.773C186.223 241.773 186.223 241.773 186.223 241.773C186.223 241.773 186.223 241.773 186.223 241.773C186.223 241.773 186.223 241.773 186.223 241.773C186.223 241.773 186.223 241.773 186.223 241.773C186.223 241.773 186.223 241.773 186.223 241.773C186.223 241.773 186.223 241.773 186.223 241.773C186.223 241.773 186.223 241.773 186.223 241.773C186.223 241.773 186.223 241.773 186.223 241.773C186.223 241.773 186.223 241.773 186.223 241.773C186.223 241.773 186.223 241.773 186.223 241.773C186.223 241.773 186.223 241.773 186.223 241.773C186.223 241.773 186.223 241.773 186.223 241.773C186.223 241.773 186.223 241.773 186.224 241.773C186.224 241.773 186.224 241.773 186.224 241.773C186.224 241.773 186.224 241.773 186.224 241.773C186.224 241.773 186.224 241.773 186.224 241.773C186.224 241.773 186.224 241.773 186.224 241.773C186.224 241.773 186.224 241.773 186.224 241.773C186.224 241.773 186.224 241.773 186.224 241.773C186.224 241.773 186.224 241.773 186.224 241.773C186.224 241.773 186.224 241.773 186.224 241.773C186.224 241.773 186.224 241.773 186.224 241.773C186.224 241.773 186.224 241.773 186.224 241.773C186.224 241.773 186.224 241.773 186.224 241.773C186.224 241.773 186.224 241.773 186.224 241.773C186.224 241.773 186.224 241.773 186.224 241.773C186.224 241.773 186.224 241.773 186.224 241.773C186.224 241.773 186.224 241.773 186.224 241.773C186.224 241.773 186.224 241.773 186.224 241.773C186.224 241.773 186.224 241.773 186.224 241.773C186.224 241.773 186.224 241.773 186.224 241.773C186.224 241.773 186.224 241.773 186.224 241.773C186.224 241.773 186.224 241.773 186.224 241.773C186.224 241.773 186.224 241.773 186.224 241.773C186.224 241.773 186.224 241.773 186.224 241.773C186.224 241.773 186.224 241.773 186.224 241.773C186.224 241.773 186.224 241.773 186.224 241.773C186.225 241.773 186.225 241.773 186.225 241.773C186.225 241.773 186.225 241.773 186.225 241.773C186.225 241.773 186.225 241.773 186.225 241.773C186.225 241.773 186.225 241.773 186.225 241.773C186.225 241.773 186.225 241.773 186.225 241.773C186.225 241.773 186.225 241.773 186.225 241.773C186.225 241.773 186.225 241.773 186.225 241.773C186.225 241.773 186.225 241.773 186.225 241.773C186.225 241.773 186.225 241.773 186.225 241.773C186.225 241.773 186.225 241.773 186.225 241.773C186.225 241.773 186.225 241.773 186.225 241.773C186.225 241.773 186.225 241.773 186.225 241.773C186.225 241.773 186.225 241.773 186.225 241.773C186.225 241.773 186.225 241.773 186.225 241.773C186.225 241.773 186.225 241.773 186.225 241.773C186.225 241.773 186.225 241.773 186.225 241.773C186.225 241.773 186.225 241.773 186.225 241.773C186.225 241.773 186.225 241.773 186.225 241.773C186.225 241.773 186.225 241.773 186.225 241.773C186.225 241.773 186.225 241.773 186.225 241.773C186.225 241.773 186.225 241.773 186.225 241.773C186.225 241.773 186.225 241.773 186.226 241.773C186.226 241.773 186.226 241.773 186.226 241.773C186.226 241.773 186.226 241.773 186.226 241.773C186.226 241.773 186.226 241.773 186.226 241.773C186.226 241.773 186.226 241.773 186.226 241.773C186.226 241.773 186.226 241.773 186.226 241.773C186.226 241.773 186.226 241.773 186.226 241.773C186.226 241.773 186.226 241.773 186.226 241.773C186.226 241.773 186.226 241.773 186.226 241.773C186.226 241.773 186.226 241.773 186.226 241.773C186.226 241.773 186.226 241.773 186.226 241.773C186.226 241.773 186.226 241.773 186.226 241.773C186.226 241.773 186.226 241.773 186.226 241.773C186.226 241.773 186.226 241.773 186.226 241.773C186.226 241.773 186.226 241.773 186.226 241.773C186.226 241.773 186.226 241.773 186.226 241.773C186.226 241.773 186.226 241.773 186.226 241.773C186.226 241.773 186.226 241.773 186.226 241.773C186.226 241.773 186.226 241.773 186.226 241.773C186.226 241.773 186.226 241.773 186.226 241.773C186.227 241.773 186.227 241.773 186.227 241.773C186.227 241.773 186.227 241.773 186.227 241.773C186.227 241.773 186.227 241.773 186.227 241.773C186.227 241.773 186.227 241.773 186.227 241.773C186.227 241.773 186.227 241.773 186.227 241.773C186.227 241.773 186.227 241.773 186.227 241.773C186.227 241.773 186.227 241.773 186.227 241.773C186.227 241.773 186.227 241.773 186.227 241.773C186.227 241.773 186.227 241.773 186.227 241.773C186.227 241.773 186.227 241.773 186.227 241.773C186.227 241.773 186.227 241.773 186.227 241.773C186.227 241.773 186.227 241.773 186.227 241.773C186.227 241.773 186.227 241.773 186.227 241.773C186.227 241.773 186.227 241.773 186.227 241.773C186.227 241.773 186.227 241.773 186.227 241.773C186.227 241.773 186.227 241.773 186.227 241.773C186.227 241.773 186.227 241.773 186.227 241.773C186.227 241.773 186.227 241.773 186.228 241.773C186.228 241.773 186.228 241.773 186.228 241.773C186.228 241.773 186.228 241.773 186.228 241.773C186.228 241.773 186.228 241.773 186.228 241.773C186.228 241.773 186.228 241.773 186.228 241.773C186.228 241.773 186.228 241.773 186.228 241.773C186.228 241.773 186.228 241.773 186.228 241.773C186.228 241.773 186.228 241.773 186.228 241.773C186.228 241.773 186.228 241.773 186.228 241.773C186.228 241.773 186.228 241.773 186.228 241.773C186.228 241.773 186.228 241.773 186.228 241.773C186.228 241.773 186.228 241.773 186.228 241.773C186.228 241.773 186.228 241.773 186.228 241.773C186.228 241.773 186.228 241.773 186.228 241.773C186.228 241.773 186.228 241.773 186.228 241.773C186.228 241.773 186.228 241.773 186.228 241.773C186.228 241.773 186.228 241.773 186.228 241.773C186.229 241.773 186.229 241.773 186.229 241.773C186.229 241.773 186.229 241.773 186.229 241.773C186.229 241.773 186.229 241.773 186.229 241.773C186.229 241.773 186.229 241.773 186.229 241.773C186.229 241.773 186.229 241.773 186.229 241.773C186.229 241.773 186.229 241.773 186.229 241.773C186.229 241.773 186.229 241.773 186.229 241.773C186.229 241.773 186.229 241.773 186.229 241.773V231.773C186.229 231.773 186.229 231.773 186.229 231.773C186.229 231.773 186.229 231.773 186.229 231.773C186.229 231.773 186.229 231.773 186.229 231.773C186.229 231.773 186.229 231.773 186.229 231.773C186.229 231.773 186.229 231.773 186.229 231.773C186.229 231.773 186.229 231.773 186.229 231.773C186.229 231.773 186.229 231.773 186.229 231.773C186.229 231.773 186.229 231.773 186.228 231.773C186.228 231.773 186.228 231.773 186.228 231.773C186.228 231.773 186.228 231.773 186.228 231.773C186.228 231.773 186.228 231.773 186.228 231.773C186.228 231.773 186.228 231.773 186.228 231.773C186.228 231.773 186.228 231.773 186.228 231.773C186.228 231.773 186.228 231.773 186.228 231.773C186.228 231.773 186.228 231.773 186.228 231.773C186.228 231.773 186.228 231.773 186.228 231.773C186.228 231.773 186.228 231.773 186.228 231.773C186.228 231.773 186.228 231.773 186.228 231.773C186.228 231.773 186.228 231.773 186.228 231.773C186.228 231.773 186.228 231.773 186.228 231.773C186.228 231.773 186.228 231.773 186.228 231.773C186.228 231.773 186.228 231.773 186.228 231.773C186.228 231.773 186.228 231.773 186.228 231.773C186.228 231.773 186.228 231.773 186.228 231.773C186.227 231.773 186.227 231.773 186.227 231.773C186.227 231.773 186.227 231.773 186.227 231.773C186.227 231.773 186.227 231.773 186.227 231.773C186.227 231.773 186.227 231.773 186.227 231.773C186.227 231.773 186.227 231.773 186.227 231.773C186.227 231.773 186.227 231.773 186.227 231.773C186.227 231.773 186.227 231.773 186.227 231.773C186.227 231.773 186.227 231.773 186.227 231.773C186.227 231.773 186.227 231.773 186.227 231.773C186.227 231.773 186.227 231.773 186.227 231.773C186.227 231.773 186.227 231.773 186.227 231.773C186.227 231.773 186.227 231.773 186.227 231.773C186.227 231.773 186.227 231.773 186.227 231.773C186.227 231.773 186.227 231.773 186.227 231.773C186.227 231.773 186.227 231.773 186.227 231.773C186.227 231.773 186.227 231.773 186.227 231.773C186.227 231.773 186.227 231.773 186.227 231.773C186.227 231.773 186.227 231.773 186.226 231.773C186.226 231.773 186.226 231.773 186.226 231.773C186.226 231.773 186.226 231.773 186.226 231.773C186.226 231.773 186.226 231.773 186.226 231.773C186.226 231.773 186.226 231.773 186.226 231.773C186.226 231.773 186.226 231.773 186.226 231.773C186.226 231.773 186.226 231.773 186.226 231.773C186.226 231.773 186.226 231.773 186.226 231.773C186.226 231.773 186.226 231.773 186.226 231.773C186.226 231.773 186.226 231.773 186.226 231.773C186.226 231.773 186.226 231.773 186.226 231.773C186.226 231.773 186.226 231.773 186.226 231.773C186.226 231.773 186.226 231.773 186.226 231.773C186.226 231.773 186.226 231.773 186.226 231.773C186.226 231.773 186.226 231.773 186.226 231.773C186.226 231.773 186.226 231.773 186.226 231.773C186.226 231.773 186.226 231.773 186.226 231.773C186.226 231.773 186.226 231.773 186.226 231.773C186.226 231.773 186.226 231.773 186.226 231.773C186.226 231.773 186.226 231.773 186.226 231.773C186.225 231.773 186.225 231.773 186.225 231.773C186.225 231.773 186.225 231.773 186.225 231.773C186.225 231.773 186.225 231.773 186.225 231.773C186.225 231.773 186.225 231.773 186.225 231.773C186.225 231.773 186.225 231.773 186.225 231.773C186.225 231.773 186.225 231.773 186.225 231.773C186.225 231.773 186.225 231.773 186.225 231.773C186.225 231.773 186.225 231.773 186.225 231.773C186.225 231.773 186.225 231.773 186.225 231.773C186.225 231.773 186.225 231.773 186.225 231.773C186.225 231.773 186.225 231.773 186.225 231.773C186.225 231.773 186.225 231.773 186.225 231.773C186.225 231.773 186.225 231.773 186.225 231.773C186.225 231.773 186.225 231.773 186.225 231.773C186.225 231.773 186.225 231.773 186.225 231.773C186.225 231.773 186.225 231.773 186.225 231.773C186.225 231.773 186.225 231.773 186.225 231.773C186.225 231.773 186.225 231.773 186.225 231.773C186.225 231.773 186.225 231.773 186.225 231.773C186.225 231.773 186.225 231.773 186.225 231.773C186.225 231.773 186.225 231.773 186.225 231.773C186.225 231.773 186.225 231.773 186.224 231.773C186.224 231.773 186.224 231.773 186.224 231.773C186.224 231.773 186.224 231.773 186.224 231.773C186.224 231.773 186.224 231.773 186.224 231.773C186.224 231.773 186.224 231.773 186.224 231.773C186.224 231.773 186.224 231.773 186.224 231.773C186.224 231.773 186.224 231.773 186.224 231.773C186.224 231.773 186.224 231.773 186.224 231.773C186.224 231.773 186.224 231.773 186.224 231.773C186.224 231.773 186.224 231.773 186.224 231.773C186.224 231.773 186.224 231.773 186.224 231.773C186.224 231.773 186.224 231.773 186.224 231.773C186.224 231.773 186.224 231.773 186.224 231.773C186.224 231.773 186.224 231.773 186.224 231.773C186.224 231.773 186.224 231.773 186.224 231.773C186.224 231.773 186.224 231.773 186.224 231.773C186.224 231.773 186.224 231.773 186.224 231.773C186.224 231.773 186.224 231.773 186.224 231.773C186.224 231.773 186.224 231.773 186.224 231.773C186.224 231.773 186.224 231.773 186.224 231.773C186.224 231.773 186.224 231.773 186.224 231.773C186.224 231.773 186.224 231.773 186.224 231.773C186.224 231.773 186.224 231.773 186.224 231.773C186.224 231.773 186.224 231.773 186.224 231.773C186.224 231.773 186.224 231.773 186.224 231.773C186.223 231.773 186.223 231.773 186.223 231.773C186.223 231.773 186.223 231.773 186.223 231.773C186.223 231.773 186.223 231.773 186.223 231.773C186.223 231.773 186.223 231.773 186.223 231.773C186.223 231.773 186.223 231.773 186.223 231.773C186.223 231.773 186.223 231.773 186.223 231.773C186.223 231.773 186.223 231.773 186.223 231.773C186.223 231.773 186.223 231.773 186.223 231.773C186.223 231.773 186.223 231.773 186.223 231.773C186.223 231.773 186.223 231.773 186.223 231.773C186.223 231.773 186.223 231.773 186.223 231.773C186.223 231.773 186.223 231.773 186.223 231.773C186.223 231.773 186.223 231.773 186.223 231.773C186.223 231.773 186.223 231.773 186.223 231.773C186.223 231.773 186.223 231.773 186.223 231.773C186.223 231.773 186.223 231.773 186.223 231.773C186.223 231.773 186.223 231.773 186.223 231.773C186.223 231.773 186.223 231.773 186.223 231.773C186.223 231.773 186.223 231.773 186.223 231.773C186.223 231.773 186.223 231.773 186.223 231.773C186.223 231.773 186.223 231.773 186.223 231.773C186.223 231.773 186.223 231.773 186.223 231.773C186.223 231.773 186.223 231.773 186.223 231.773C186.223 231.773 186.223 231.773 186.223 231.773C186.223 231.773 186.223 231.773 186.223 231.773C186.223 231.773 186.223 231.773 186.223 231.773C186.223 231.773 186.223 231.773 186.223 231.773C186.223 231.773 186.223 231.773 186.223 231.773C186.223 231.773 186.223 231.773 186.223 231.773C186.223 231.773 186.222 231.773 186.222 231.773C186.222 231.773 186.222 231.773 186.222 231.773C186.222 231.773 186.222 231.773 186.222 231.773C186.222 231.773 186.222 231.773 186.222 231.773C186.222 231.773 186.222 231.773 186.222 231.773C186.222 231.773 186.222 231.773 186.222 231.773C186.222 231.773 186.222 231.773 186.222 231.773C186.222 231.773 186.222 231.773 186.222 231.773C186.222 231.773 186.222 231.773 186.222 231.773C186.222 231.773 186.222 231.773 186.222 231.773C186.222 231.773 186.222 231.773 186.222 231.773C186.222 231.773 186.222 231.773 186.222 231.773C186.222 231.773 186.222 231.773 186.222 231.773C186.222 231.773 186.222 231.773 186.222 231.773C186.222 231.773 186.222 231.773 186.222 231.773C186.222 231.773 186.222 231.773 186.222 231.773C186.222 231.773 186.222 231.773 186.222 231.773C186.222 231.773 186.222 231.773 186.222 231.773C186.222 231.773 186.222 231.773 186.222 231.773C186.222 231.773 186.222 231.773 186.222 231.773C186.222 231.773 186.222 231.773 186.222 231.773C186.222 231.773 186.222 231.773 186.222 231.773C186.222 231.773 186.222 231.773 186.222 231.773C186.222 231.773 186.222 231.773 186.222 231.773C186.222 231.773 186.222 231.773 186.222 231.773C186.222 231.773 186.222 231.773 186.222 231.773C186.222 231.773 186.222 231.773 186.222 231.773C186.222 231.773 186.222 231.773 186.222 231.773C186.222 231.773 186.222 231.773 186.222 231.773C186.222 231.773 186.222 231.773 186.222 231.773C186.222 231.773 186.222 231.773 186.222 231.773C186.222 231.773 186.222 231.773 186.222 231.773C186.222 231.773 186.222 231.773 186.222 231.773C186.222 231.773 186.222 231.773 186.222 231.773C186.222 231.773 186.222 231.773 186.222 231.773C186.222 231.773 186.222 231.773 186.222 231.773C186.222 231.773 186.222 231.773 186.222 231.773C186.222 231.773 186.222 231.773 186.222 231.773C186.222 231.773 186.222 231.773 186.222 231.773C186.222 231.773 186.222 231.773 186.222 231.773C186.221 231.773 186.221 231.773 186.221 231.773C186.221 231.773 186.221 231.773 186.221 231.773C186.221 231.773 186.221 231.773 186.221 231.773C186.221 231.773 186.221 231.773 186.221 231.773C186.221 231.773 186.221 231.773 186.221 231.773C186.221 231.773 186.221 231.773 186.221 231.773C186.221 231.773 186.221 231.773 186.221 231.773C186.221 231.773 186.221 231.773 186.221 231.773C186.221 231.773 186.221 231.773 186.221 231.773C186.221 231.773 186.221 231.773 186.221 231.773C186.221 231.773 186.221 231.773 186.221 231.773C186.221 231.773 186.221 231.773 186.221 231.773C186.221 231.773 186.221 231.773 186.221 231.773C186.221 231.773 186.221 231.773 186.221 231.773C186.221 231.773 186.221 231.773 186.221 231.773C186.221 231.773 186.221 231.773 186.221 231.773C186.221 231.773 186.221 231.773 186.221 231.773C186.221 231.773 186.221 231.773 186.221 231.773C186.221 231.773 186.221 231.773 186.221 231.773C186.221 231.773 186.221 231.773 186.221 231.773C186.221 231.773 186.221 231.773 186.221 231.773C186.221 231.773 186.221 231.773 186.221 231.773C186.221 231.773 186.221 231.773 186.221 231.773C186.221 231.773 186.221 231.773 186.221 231.773C186.221 231.773 186.221 231.773 186.221 231.773C186.221 231.773 186.221 231.773 186.221 231.773C186.221 231.773 186.221 231.773 186.221 231.773C186.221 231.773 186.221 231.773 186.221 231.773C186.221 231.773 186.221 231.773 186.221 231.773C186.221 231.773 186.221 231.773 186.221 231.773C186.221 231.773 186.221 231.773 186.221 231.773C186.221 231.773 186.221 231.773 186.221 231.773C186.221 231.773 186.221 231.773 186.221 231.773C186.221 231.773 186.221 231.773 186.221 231.773C186.221 231.773 186.221 231.773 186.221 231.773C186.221 231.773 186.221 231.773 186.221 231.773C186.221 231.773 186.221 231.773 186.221 231.773C186.221 231.773 186.221 231.773 186.221 231.773C186.221 231.773 186.221 231.773 186.221 231.773C186.221 231.773 186.221 231.773 186.221 231.773C186.221 231.773 186.221 231.773 186.221 231.773C186.221 231.773 186.221 231.773 186.221 231.773C186.221 231.773 186.221 231.773 186.221 231.773C186.221 231.773 186.221 231.773 186.221 231.773C186.221 231.773 186.221 231.773 186.221 231.773C186.221 231.773 186.221 231.773 186.221 231.773C186.221 231.773 186.221 231.773 186.221 231.773C186.221 231.773 186.221 231.773 186.221 231.773C186.221 231.773 186.221 231.773 186.221 231.773C186.221 231.773 186.221 231.773 186.221 231.773C186.221 231.773 186.221 231.773 186.221 231.773C186.221 231.773 186.221 231.773 186.221 231.773C186.221 231.773 186.221 231.773 186.221 231.773C186.221 231.773 186.221 231.773 186.221 231.773C186.221 231.773 186.221 231.773 186.221 231.773C186.221 231.773 186.221 231.773 186.221 231.773C186.221 231.773 186.221 231.773 186.221 231.773C186.221 231.773 186.221 231.773 186.221 231.773C186.221 231.773 186.221 231.773 186.221 231.773C186.221 231.773 186.221 231.773 186.221 231.773C186.221 231.773 186.221 231.773 186.221 231.773C186.221 231.773 186.221 231.773 186.221 231.773C186.221 231.773 186.221 231.773 186.221 231.773C186.221 231.773 186.221 231.773 186.221 231.773C186.221 231.773 186.221 231.773 186.221 231.773C186.221 231.773 186.221 231.773 186.221 231.773C186.221 231.773 186.221 231.773 186.221 231.773C186.221 231.773 186.221 231.773 186.221 231.773C186.221 231.773 186.221 231.773 186.221 231.773C186.221 231.773 186.221 231.773 186.221 231.773C186.221 231.773 186.221 231.773 186.221 231.773C186.221 231.773 186.221 231.773 186.221 231.773C186.221 231.773 186.221 231.773 186.221 231.773C186.221 231.773 186.221 231.773 186.221 231.773C186.221 231.773 186.221 231.773 186.221 231.773C186.221 231.773 186.221 231.773 186.221 231.773C186.221 231.773 186.221 231.773 186.221 231.773C186.221 231.773 186.221 231.773 186.221 231.773C186.221 231.773 186.221 231.773 186.221 231.773C186.221 231.773 186.221 231.773 186.221 236.773C186.221 241.773 186.221 241.773 186.221 241.773C186.221 241.773 186.221 241.773 186.221 241.773C186.221 241.773 186.221 241.773 186.221 241.773C186.221 241.773 186.221 241.773 186.221 241.773C186.221 241.773 186.221 241.773 186.221 241.773C186.221 241.773 186.221 241.773 186.221 241.773C186.221 241.773 186.221 241.773 186.221 241.773C186.221 241.773 186.221 241.773 186.221 241.773C186.221 241.773 186.221 241.773 186.221 241.773C186.221 241.773 186.221 241.773 186.221 241.773C186.221 241.773 186.221 241.773 186.221 241.773C186.221 241.773 186.221 241.773 186.221 241.773C186.221 241.773 186.221 241.773 186.221 241.773C186.221 241.773 186.221 241.773 186.221 241.773C186.221 241.773 186.221 241.773 186.221 241.773C186.221 241.773 186.221 241.773 186.221 241.773C186.221 241.773 186.221 241.773 186.221 241.773C186.221 241.773 186.221 241.773 186.221 241.773C186.221 241.773 186.221 241.773 186.221 241.773C186.221 241.773 186.221 241.773 186.221 241.773C186.221 241.773 186.221 241.773 186.221 241.773C186.221 241.773 186.221 241.773 186.221 241.773C186.221 241.773 186.221 241.773 186.221 241.773C186.221 241.773 186.221 241.773 186.221 241.773C186.221 241.773 186.221 241.773 186.221 241.773C186.221 241.773 186.221 241.773 186.221 241.773C186.221 241.773 186.221 241.773 186.221 241.773C186.221 241.773 186.221 241.773 186.221 241.773C186.221 241.773 186.221 241.773 186.221 241.773C186.221 241.773 186.221 241.773 186.221 241.773C186.221 241.773 186.221 241.773 186.221 241.773C186.221 241.773 186.221 241.773 186.221 241.773C186.221 241.773 186.221 241.773 186.221 241.773C186.221 241.773 186.221 241.773 186.221 241.773C186.221 241.773 186.221 241.773 186.221 241.773C186.221 241.773 186.221 241.773 186.221 241.773C186.221 241.773 186.221 241.773 186.221 241.773C186.221 241.773 186.221 241.773 186.221 241.773C186.221 241.773 186.221 241.773 186.221 241.773C186.221 241.773 186.221 241.773 186.221 241.773C186.221 241.773 186.221 241.773 186.221 241.773C186.221 241.773 186.221 241.773 186.221 241.773C186.221 241.773 186.221 241.773 186.221 241.773C186.221 241.773 186.221 241.773 186.221 241.773C186.221 241.773 186.221 241.773 186.221 241.773C186.221 241.773 186.221 241.773 186.221 241.773C186.221 241.773 186.221 241.773 186.221 241.773C186.221 241.773 186.221 241.773 186.221 241.773C186.221 241.773 186.221 241.773 186.221 241.773C186.221 241.773 186.221 241.773 186.221 241.773C186.221 241.773 186.221 241.773 186.221 241.773C186.221 241.773 186.221 241.773 186.221 241.773C186.221 241.773 186.221 241.773 186.221 241.773C186.221 241.773 186.221 241.773 186.221 241.773C186.221 241.773 186.221 241.773 186.221 241.773C186.221 241.773 186.221 241.773 186.221 241.773C186.221 241.773 186.221 241.773 186.221 241.773C186.221 241.773 186.221 241.773 186.221 241.773C186.221 241.773 186.221 241.773 186.221 241.773C186.221 241.773 186.221 241.773 186.221 241.773C186.221 241.773 186.221 241.773 186.221 241.773C186.221 241.773 186.221 241.773 186.221 241.773C186.221 241.773 186.221 241.773 186.221 241.773C186.221 241.773 186.221 241.773 186.221 241.773C186.221 241.773 186.221 241.773 186.221 241.773C186.221 241.773 186.221 241.773 186.221 241.773C186.221 241.773 186.221 241.773 186.221 241.773C186.221 241.773 186.221 241.773 186.221 241.773C186.221 241.773 186.221 241.773 186.221 241.773C186.221 241.773 186.221 241.773 186.221 241.773C186.221 241.773 186.221 241.773 186.221 241.773C186.221 241.773 186.221 241.773 186.221 241.773C186.221 241.773 186.221 241.773 186.221 241.773C186.221 241.773 186.221 241.773 186.221 241.773C186.221 241.773 186.221 241.773 186.221 241.773C186.221 241.773 186.221 241.773 186.221 241.773C186.221 241.773 186.221 241.773 186.221 241.773C186.221 241.773 186.221 241.773 186.221 241.773C186.221 241.773 186.221 241.773 186.221 241.773C186.221 241.773 186.221 241.773 186.222 241.773C186.222 241.773 186.222 241.773 186.222 241.773C186.222 241.773 186.222 241.773 186.222 241.773C186.222 241.773 186.222 241.773 186.222 241.773C186.222 241.773 186.222 241.773 186.222 241.773C186.222 241.773 186.222 241.773 186.222 241.773C186.222 241.773 186.222 241.773 186.222 241.773C186.222 241.773 186.222 241.773 186.222 241.773C186.222 241.773 186.222 241.773 186.222 241.773C186.222 241.773 186.222 241.773 186.222 241.773C186.222 241.773 186.222 241.773 186.222 241.773C186.222 241.773 186.222 241.773 186.222 241.773C186.222 241.773 186.222 241.773 186.222 241.773C186.222 241.773 186.222 241.773 186.222 241.773C186.222 241.773 186.222 241.773 186.222 241.773C186.222 241.773 186.222 241.773 186.222 241.773C186.222 241.773 186.222 241.773 186.222 241.773C186.222 241.773 186.222 241.773 186.222 241.773C186.222 241.773 186.222 241.773 186.222 241.773C186.222 241.773 186.222 241.773 186.222 241.773C186.222 241.773 186.222 241.773 186.222 241.773C186.222 241.773 186.222 241.773 186.222 241.773C186.222 241.773 186.222 241.773 186.222 241.773C186.222 241.773 186.222 241.773 186.222 241.773C186.222 241.773 186.222 241.773 186.222 241.773C186.222 241.773 186.222 241.773 186.222 241.773C186.222 241.773 186.222 241.773 186.222 241.773C186.222 241.773 186.222 241.773 186.222 241.773C186.222 241.773 186.222 241.773 186.222 241.773C186.222 241.773 186.222 241.773 186.222 241.773C186.222 241.773 186.222 241.773 186.222 241.773C186.222 241.773 186.222 241.773 186.222 241.773C186.222 241.773 186.222 241.773 186.222 241.773C186.222 241.773 186.222 241.773 186.222 241.773C186.222 241.773 186.222 241.773 186.222 241.773C186.222 241.773 186.222 241.773 186.222 241.773C186.222 241.773 186.222 241.773 186.222 241.773C186.222 241.773 186.222 241.773 186.222 241.773C186.222 241.773 186.222 241.773 186.222 241.773C186.222 241.773 186.222 241.773 186.222 241.773C186.222 241.773 186.223 241.773 186.223 241.773C186.223 241.773 186.223 241.773 186.223 241.773C186.223 241.773 186.223 241.773 186.223 241.773C186.223 241.773 186.223 241.773 186.223 241.773C186.223 241.773 186.223 241.773 186.223 241.773C186.223 241.773 186.223 241.773 186.223 241.773C186.223 241.773 186.223 241.773 186.223 241.773C186.223 241.773 186.223 241.773 186.223 241.773C186.223 241.773 186.223 241.773 186.223 241.773C186.223 241.773 186.223 241.773 186.223 241.773C186.223 241.773 186.223 241.773 186.223 241.773C186.223 241.773 186.223 241.773 186.223 241.773C186.223 241.773 186.223 241.773 186.223 241.773C186.223 241.773 186.223 241.773 186.223 241.773C186.223 241.773 186.223 241.773 186.223 241.773C186.223 241.773 186.223 241.773 186.223 241.773C186.223 241.773 186.223 241.773 186.223 241.773C186.223 241.773 186.223 241.773 186.223 241.773C186.223 241.773 186.223 241.773 186.223 241.773C186.223 241.773 186.223 241.773 186.223 241.773C186.223 241.773 186.223 241.773 186.223 241.773C186.223 241.773 186.223 241.773 186.223 241.773C186.223 241.773 186.223 241.773 186.223 241.773C186.223 241.773 186.223 241.773 186.223 241.773C186.223 241.773 186.223 241.773 186.223 241.773C186.223 241.773 186.223 241.773 186.223 241.773C186.223 241.773 186.223 241.773 186.223 241.773C186.223 241.773 186.223 241.773 186.223 241.773C186.223 241.773 186.223 241.773 186.223 241.773C186.223 241.773 186.223 241.773 186.224 241.773C186.224 241.773 186.224 241.773 186.224 241.773C186.224 241.773 186.224 241.773 186.224 241.773C186.224 241.773 186.224 241.773 186.224 241.773C186.224 241.773 186.224 241.773 186.224 241.773C186.224 241.773 186.224 241.773 186.224 241.773C186.224 241.773 186.224 241.773 186.224 241.773C186.224 241.773 186.224 241.773 186.224 241.773C186.224 241.773 186.224 241.773 186.224 241.773C186.224 241.773 186.224 241.773 186.224 241.773C186.224 241.773 186.224 241.773 186.224 241.773C186.224 241.773 186.224 241.773 186.224 241.773C186.224 241.773 186.224 241.773 186.224 241.773C186.224 241.773 186.224 241.773 186.224 241.773C186.224 241.773 186.224 241.773 186.224 241.773C186.224 241.773 186.224 241.773 186.224 241.773C186.224 241.773 186.224 241.773 186.224 241.773C186.224 241.773 186.224 241.773 186.224 241.773C186.224 241.773 186.224 241.773 186.224 241.773C186.224 241.773 186.224 241.773 186.224 241.773C186.224 241.773 186.224 241.773 186.224 241.773C186.224 241.773 186.224 241.773 186.224 241.773C186.224 241.773 186.224 241.773 186.224 241.773C186.224 241.773 186.224 241.773 186.224 241.773C186.224 241.773 186.224 241.773 186.224 241.773C186.225 241.773 186.225 241.773 186.225 241.773C186.225 241.773 186.225 241.773 186.225 241.773C186.225 241.773 186.225 241.773 186.225 241.773C186.225 241.773 186.225 241.773 186.225 241.773C186.225 241.773 186.225 241.773 186.225 241.773C186.225 241.773 186.225 241.773 186.225 241.773C186.225 241.773 186.225 241.773 186.225 241.773C186.225 241.773 186.225 241.773 186.225 241.773C186.225 241.773 186.225 241.773 186.225 241.773C186.225 241.773 186.225 241.773 186.225 241.773C186.225 241.773 186.225 241.773 186.225 241.773C186.225 241.773 186.225 241.773 186.225 241.773C186.225 241.773 186.225 241.773 186.225 241.773C186.225 241.773 186.225 241.773 186.225 241.773C186.225 241.773 186.225 241.773 186.225 241.773C186.225 241.773 186.225 241.773 186.225 241.773C186.225 241.773 186.225 241.773 186.225 241.773C186.225 241.773 186.225 241.773 186.225 241.773C186.225 241.773 186.225 241.773 186.225 241.773C186.225 241.773 186.225 241.773 186.225 241.773C186.225 241.773 186.225 241.773 186.225 241.773C186.225 241.773 186.225 241.773 186.226 241.773C186.226 241.773 186.226 241.773 186.226 241.773C186.226 241.773 186.226 241.773 186.226 241.773C186.226 241.773 186.226 241.773 186.226 241.773C186.226 241.773 186.226 241.773 186.226 241.773C186.226 241.773 186.226 241.773 186.226 241.773C186.226 241.773 186.226 241.773 186.226 241.773C186.226 241.773 186.226 241.773 186.226 241.773C186.226 241.773 186.226 241.773 186.226 241.773C186.226 241.773 186.226 241.773 186.226 241.773C186.226 241.773 186.226 241.773 186.226 241.773C186.226 241.773 186.226 241.773 186.226 241.773C186.226 241.773 186.226 241.773 186.226 241.773C186.226 241.773 186.226 241.773 186.226 241.773C186.226 241.773 186.226 241.773 186.226 241.773C186.226 241.773 186.226 241.773 186.226 241.773C186.226 241.773 186.226 241.773 186.226 241.773C186.226 241.773 186.226 241.773 186.226 241.773C186.226 241.773 186.226 241.773 186.226 241.773C186.226 241.773 186.226 241.773 186.226 241.773C186.227 241.773 186.227 241.773 186.227 241.773C186.227 241.773 186.227 241.773 186.227 241.773C186.227 241.773 186.227 241.773 186.227 241.773C186.227 241.773 186.227 241.773 186.227 241.773C186.227 241.773 186.227 241.773 186.227 241.773C186.227 241.773 186.227 241.773 186.227 241.773C186.227 241.773 186.227 241.773 186.227 241.773C186.227 241.773 186.227 241.773 186.227 241.773C186.227 241.773 186.227 241.773 186.227 241.773C186.227 241.773 186.227 241.773 186.227 241.773C186.227 241.773 186.227 241.773 186.227 241.773C186.227 241.773 186.227 241.773 186.227 241.773C186.227 241.773 186.227 241.773 186.227 241.773C186.227 241.773 186.227 241.773 186.227 241.773C186.227 241.773 186.227 241.773 186.227 241.773C186.227 241.773 186.227 241.773 186.227 241.773C186.227 241.773 186.227 241.773 186.227 241.773C186.227 241.773 186.227 241.773 186.228 241.773C186.228 241.773 186.228 241.773 186.228 241.773C186.228 241.773 186.228 241.773 186.228 241.773C186.228 241.773 186.228 241.773 186.228 241.773C186.228 241.773 186.228 241.773 186.228 241.773C186.228 241.773 186.228 241.773 186.228 241.773C186.228 241.773 186.228 241.773 186.228 241.773C186.228 241.773 186.228 241.773 186.228 241.773C186.228 241.773 186.228 241.773 186.228 241.773C186.228 241.773 186.228 241.773 186.228 241.773C186.228 241.773 186.228 241.773 186.228 241.773C186.228 241.773 186.228 241.773 186.228 241.773C186.228 241.773 186.228 241.773 186.228 241.773C186.228 241.773 186.228 241.773 186.228 241.773C186.228 241.773 186.228 241.773 186.228 241.773C186.228 241.773 186.228 241.773 186.228 241.773C186.228 241.773 186.228 241.773 186.228 241.773C186.229 241.773 186.229 241.773 186.229 241.773C186.229 241.773 186.229 241.773 186.229 241.773C186.229 241.773 186.229 241.773 186.229 241.773C186.229 241.773 186.229 241.773 186.229 241.773C186.229 241.773 186.229 241.773 186.229 241.773C186.229 241.773 186.229 241.773 186.229 241.773C186.229 241.773 186.229 241.773 186.229 241.773C186.229 241.773 186.229 241.773 186.229 241.773V231.773ZM186.229 231.773C179.533 231.773 171.395 229.227 162.155 223.808C152.959 218.415 142.969 210.349 132.662 199.764L125.498 206.741C136.247 217.779 146.931 226.473 157.096 232.434C167.216 238.37 177.125 241.773 186.229 241.773V231.773ZM132.661 199.764L128.891 195.894L121.728 202.872L125.498 206.742L132.661 199.764ZM128.891 202.872L132.661 199.002L125.498 192.024L121.728 195.894L128.891 202.872ZM132.684 198.978C142.7 188.56 151.85 177.343 160.043 165.437L151.806 159.768C143.921 171.226 135.115 182.021 125.475 192.048L132.684 198.978ZM160.022 165.469L161.519 163.329L153.324 157.597L151.827 159.737L160.022 165.469ZM157.847 165.445L160.442 165.223L159.59 155.259L156.996 155.481L157.847 165.445ZM160.407 165.226C174.834 164.095 189.145 161.794 203.2 158.344L200.816 148.632C187.288 151.953 173.512 154.168 159.626 155.256L160.407 165.226ZM203.23 158.337L208.464 157.017L206.019 147.32L200.785 148.64L203.23 158.337ZM202.435 153.545L203.92 158.734L213.534 155.982L212.048 150.792L202.435 153.545ZM203.917 158.721C209.288 177.683 211.035 193.559 209.586 205.627C208.138 217.688 203.622 225.265 197.095 229.025L202.086 237.69C212.325 231.792 217.849 220.686 219.514 206.819C221.178 192.96 219.11 175.665 213.538 155.995L203.917 158.721ZM197.13 229.005C193.829 230.872 190.091 231.827 186.3 231.773L186.158 241.772C191.723 241.851 197.207 240.449 202.051 237.71L197.13 229.005ZM137.323 202.865C146.178 211.488 154.919 218.368 163.087 223.121C171.175 227.829 179.1 230.685 186.218 230.685V220.685C181.605 220.685 175.475 218.761 168.117 214.479C160.838 210.242 152.742 203.921 144.299 195.701L137.323 202.865ZM186.218 230.685C189.899 230.685 193.444 229.883 196.537 228.095L191.533 219.437C190.214 220.2 188.458 220.685 186.218 220.685V230.685ZM196.532 228.098C204.187 223.685 207.723 214.463 208.689 203.886C209.676 193.077 208.143 179.495 204.258 164.272L194.568 166.744C198.29 181.327 199.578 193.696 198.731 202.977C197.862 212.489 194.905 217.493 191.538 219.434L196.532 228.098ZM198.326 160.628C186.72 163.213 174.957 165.035 163.113 166.083L163.994 176.044C176.273 174.957 188.468 173.068 200.5 170.388L198.326 160.628ZM159.461 168.191C152.639 177.909 145.181 187.164 137.134 195.895L144.488 202.672C152.834 193.615 160.57 184.016 167.646 173.936L159.461 168.191ZM208.464 79.6593L203.23 78.3398L200.785 88.0363L206.019 89.3558L208.464 79.6593ZM203.203 78.3331C189.149 74.8717 174.836 72.5661 160.405 71.4393L159.627 81.409C173.513 82.4933 187.288 84.712 200.812 88.043L203.203 78.3331ZM160.442 71.4423L157.847 71.2205L156.996 81.1842L159.59 81.406L160.442 71.4423ZM161.519 73.3365L160.022 71.1964L151.827 76.9282L153.324 79.0683L161.519 73.3365ZM160.044 71.2286C151.854 59.3227 142.703 48.1076 132.682 37.6959L125.477 44.6304C135.119 54.6487 143.925 65.44 151.805 76.896L160.044 71.2286ZM132.661 37.6741L128.891 33.8043L121.728 40.7824L125.498 44.6522L132.661 37.6741ZM128.891 40.7824L132.661 36.9125L125.498 29.9344L121.728 33.8043L128.891 40.7824ZM132.661 36.9125C146.212 23.0027 159.192 13.5841 170.492 8.76466C181.836 3.92685 190.754 3.98958 197.096 7.64061L202.085 -1.02562C191.96 -6.85514 179.451 -5.92751 166.569 -0.433745C153.644 5.07842 139.601 15.458 125.498 29.9344L132.661 36.9125ZM197.093 7.63881C203.623 11.405 208.141 18.9847 209.59 31.0442C211.04 43.1115 209.294 58.9877 203.917 77.9544L213.538 80.682C219.116 61.0058 221.184 43.7111 219.518 29.8511C217.852 15.9833 212.324 4.87907 202.088 -1.02381L197.093 7.63881ZM203.92 77.9419L202.435 83.1312L212.048 85.8839L213.534 80.6945L203.92 77.9419ZM163.1 70.5813C175.563 71.7163 187.375 73.5582 198.309 76.0337L200.517 66.2806C189.119 63.6998 176.869 61.7939 164.007 60.6225L163.1 70.5813ZM204.258 72.3936C208.143 57.1704 209.676 43.5906 208.689 32.7842C207.723 22.209 204.186 12.9905 196.532 8.57822L191.538 17.2418C194.906 19.1832 197.862 24.1855 198.731 33.6941C199.578 42.9715 198.29 55.3384 194.568 69.9208L204.258 72.3936ZM196.537 8.58099C188.882 4.15666 178.997 5.8523 169.343 10.3231C159.434 14.9121 148.408 23.0154 137.323 33.8112L144.3 40.9751C154.892 30.6586 165 23.3546 173.545 19.3972C182.345 15.3217 188.233 15.3319 191.533 17.239L196.537 8.58099ZM137.133 40.7805C145.176 49.5128 152.635 58.7651 159.463 68.4774L167.644 62.7264C160.564 52.6552 152.829 43.0609 144.489 34.0058L137.133 40.7805ZM79.8301 231.773C76.0355 231.829 72.2946 230.873 68.9912 229.005L64.0692 237.71C68.917 240.451 74.4068 241.853 79.9753 241.772L79.8301 231.773ZM69.026 229.025C62.4976 225.264 57.9801 217.689 56.5321 205.631C55.0833 193.566 56.832 177.69 62.2145 158.723L52.5944 155.993C47.0105 175.669 44.9393 192.964 46.6035 206.823C48.2686 220.69 53.7971 231.793 64.0344 237.69L69.026 229.025ZM62.2167 158.715L63.6804 153.526L54.0559 150.811L52.5922 156.001L62.2167 158.715ZM57.6458 157.017L62.8795 158.337L65.3242 148.64L60.0904 147.32L57.6458 157.017ZM62.8802 158.337C75.9861 161.639 90.3857 163.951 105.656 165.224L106.486 155.258C91.6852 154.025 77.8316 151.791 65.3234 148.64L62.8802 158.337ZM105.647 165.223L108.253 165.445L109.101 155.481L106.495 155.259L105.647 165.223ZM104.57 163.314L106.056 165.454L114.27 159.751L112.784 157.611L104.57 163.314ZM106.045 165.439C114.244 177.342 123.397 188.559 133.414 198.978L140.623 192.048C130.982 182.019 122.172 171.223 114.281 159.767L106.045 165.439ZM133.437 199.002L137.207 202.872L144.37 195.894L140.6 192.024L133.437 199.002ZM137.207 195.894L133.437 199.764L140.6 206.742L144.37 202.872L137.207 195.894ZM133.436 199.765C123.134 210.349 113.147 218.416 103.955 223.809C94.719 229.228 86.5871 231.773 79.9027 231.773V241.773C88.9971 241.773 98.9004 238.369 109.016 232.434C119.177 226.472 129.858 217.779 140.602 206.74L133.436 199.765ZM61.8629 164.272C57.9777 179.495 56.4442 193.077 57.4316 203.886C58.3978 214.463 61.9337 223.685 69.5883 228.098L74.5825 219.434C71.2153 217.493 68.259 212.489 67.3901 202.977C66.5424 193.696 67.8308 181.327 71.5523 166.744L61.8629 164.272ZM69.608 228.109C77.2478 232.467 87.1097 230.778 96.7616 226.317C106.668 221.739 117.697 213.66 128.795 202.868L121.824 195.699C111.222 206.008 101.112 213.291 92.5666 217.24C83.7675 221.306 77.8672 221.308 74.5628 219.423L69.608 228.109ZM128.988 195.897C120.944 187.157 113.481 177.901 106.646 168.186L98.467 173.94C105.553 184.012 113.291 193.609 121.631 202.669L128.988 195.897ZM102.997 166.083C91.1562 165.036 79.3972 163.213 67.7952 160.628L65.6199 170.388C77.6485 173.069 89.84 174.958 102.116 176.044L102.997 166.083ZM133.06 167.472C124.079 167.472 114.835 167.079 105.574 166.313L104.75 176.279C114.272 177.066 123.791 177.472 133.06 177.472V167.472ZM105.586 166.314L102.98 166.092L102.132 176.056L104.738 176.278L105.586 166.314ZM106.653 168.209L105.156 166.068L96.9621 171.8L98.4591 173.94L106.653 168.209ZM105.163 166.078C99.9298 158.558 95.0098 150.825 90.4161 142.898L81.7639 147.912C86.4961 156.078 91.5642 164.044 96.9554 171.79L105.163 166.078ZM90.4202 142.905C85.8402 134.972 81.5909 126.852 77.6832 118.567L68.6388 122.833C72.6642 131.368 77.0417 139.732 81.7598 147.905L90.4202 142.905ZM77.6952 118.593L76.5974 116.231L67.5291 120.446L68.6268 122.807L77.6952 118.593ZM76.5974 120.446L77.6952 118.084L68.6268 113.869L67.5291 116.231L76.5974 120.446ZM77.6834 118.109C81.5903 109.824 85.8395 101.704 90.42 93.7717L81.76 88.7712C77.0412 96.9436 72.6636 105.308 68.6386 113.844L77.6834 118.109ZM90.4185 93.7743C94.9365 85.9605 99.9068 78.1604 105.165 70.5957L96.9537 64.8882C91.5448 72.6698 86.4247 80.7039 81.7615 88.7687L90.4185 93.7743ZM105.156 70.6078L106.653 68.4678L98.4591 62.736L96.9621 64.8761L105.156 70.6078ZM102.98 70.5839L105.586 70.3621L104.738 60.3981L102.132 60.6199L102.98 70.5839ZM105.584 70.3623C123.873 68.8116 142.259 68.8116 160.547 70.3623L161.392 60.398C142.542 58.7996 123.59 58.7996 104.74 60.398L105.584 70.3623ZM160.544 70.362L163.139 70.5837L163.99 60.6201L161.396 60.3983L160.544 70.362ZM159.457 68.4535L160.943 70.5935L169.157 64.8904L167.672 62.7503L159.457 68.4535ZM160.947 70.5997C171.423 85.6396 180.619 101.532 188.437 118.109L197.482 113.843C189.425 96.7602 179.949 80.383 169.153 64.8842L160.947 70.5997ZM188.442 118.119L189.562 120.48L198.597 116.196L197.477 113.834L188.442 118.119ZM189.562 116.196L188.442 118.558L197.477 122.842L198.597 120.48L189.562 116.196ZM188.435 118.572C180.637 135.156 171.442 151.046 160.951 166.072L169.15 171.797C179.966 156.307 189.445 139.924 197.484 122.828L188.435 118.572ZM160.943 166.083L159.457 168.223L167.672 173.926L169.157 171.786L160.943 166.083ZM163.139 166.093L160.544 166.314L161.395 176.278L163.99 176.056L163.139 166.093ZM160.558 166.313C151.297 167.079 142.042 167.472 133.06 167.472V177.472C142.33 177.472 151.859 177.066 161.382 176.279L160.558 166.313ZM108.325 165.438C124.985 166.687 141.136 166.687 157.806 165.438L157.059 155.466C140.886 156.678 125.235 156.678 109.073 155.466L108.325 165.438ZM161.559 163.275C170.87 149.663 179.137 135.366 186.288 120.506L177.277 116.17C170.345 130.575 162.331 144.434 153.306 157.629L161.559 163.275ZM186.29 116.174C179.15 101.302 170.877 87.0004 161.545 73.3962L153.298 79.0529C162.341 92.2347 170.357 106.092 177.275 120.502L186.29 116.174ZM157.8 71.2389C141.331 69.9889 124.79 69.9889 108.321 71.2389L109.078 81.2102C125.043 79.9985 141.078 79.9985 157.043 81.2102L157.8 71.2389ZM104.577 73.395C95.24 86.9974 86.9665 101.3 79.83 116.175L88.8461 120.501C95.7601 106.089 103.776 92.2326 112.822 79.0541L104.577 73.395ZM79.8337 120.509C86.9924 135.366 95.262 149.662 104.572 163.274L112.826 157.629C103.8 144.432 95.7828 130.572 88.8425 116.168L79.8337 120.509Z" fill="black" mask="url(#path-1-inside-1_810_5)"/>
</svg>
